<svg width="94" height="87" viewBox="0 0 94 87" fill="none" xmlns="http://www.w3.org/2000/svg">
<g clip-path="url(#clip0_5_5895)">
<g clip-path="url(#clip1_5_5895)">
<path d="M36 53C46.4934 53 55 44.9411 55 35C55 25.0589 46.4934 17 36 17C25.5066 17 17 25.0589 17 35C17 44.9411 25.5066 53 36 53Z" fill="#FDC040"/>
<path d="M36.2251 54.4914C47.6509 54.4914 56.9464 45.893 56.9464 35.3239C56.9464 24.7548 47.6508 16.1562 36.2251 16.1562C24.7994 16.1562 15.5039 24.7548 15.5039 35.3239C15.5039 45.893 24.7994 54.4914 36.2251 54.4914ZM36.2251 18.5023C46.3573 18.5023 54.6004 26.0484 54.6004 35.3239C54.6004 44.5994 46.3572 52.1455 36.2251 52.1455C26.093 52.1455 17.8499 44.5994 17.8499 35.3239C17.8499 26.0484 26.093 18.5023 36.2251 18.5023Z" fill="#3BB77E"/>
<path d="M42.5703 32.3502C42.5703 34.2557 44.1205 35.806 46.0261 35.806C47.9316 35.806 49.4818 34.2557 49.4818 32.3502C49.4818 30.4448 47.9316 28.8945 46.0261 28.8945C44.1205 28.8945 42.5703 30.4448 42.5703 32.3502ZM46.026 31.2406C46.6378 31.2406 47.1356 31.7384 47.1356 32.3502C47.1356 32.9621 46.6378 33.4599 46.026 33.4599C45.414 33.4599 44.9161 32.9621 44.9161 32.3502C44.9161 31.7384 45.4141 31.2406 46.026 31.2406Z" fill="#3BB77E"/>
<path d="M40.4324 30.0814C42.3378 30.0814 43.8881 28.5311 43.8881 26.6257C43.8881 24.7202 42.3378 23.1699 40.4324 23.1699C38.5269 23.1699 36.9766 24.7202 36.9766 26.6257C36.9766 28.5311 38.5269 30.0814 40.4324 30.0814ZM40.4324 25.5158C41.0442 25.5158 41.542 26.0137 41.542 26.6255C41.542 27.2374 41.0442 27.7352 40.4324 27.7352C39.8205 27.7352 39.3227 27.2374 39.3227 26.6255C39.3227 26.0137 39.8205 25.5158 40.4324 25.5158Z" fill="#3BB77E"/>
<path d="M26.4244 35.806C28.33 35.806 29.8804 34.2557 29.8804 32.3502C29.8804 30.4448 28.33 28.8945 26.4244 28.8945C24.519 28.8945 22.9688 30.4448 22.9688 32.3502C22.9688 34.2557 24.519 35.806 26.4244 35.806ZM26.4244 31.2406C27.0364 31.2406 27.5343 31.7384 27.5343 32.3502C27.5343 32.9621 27.0364 33.4599 26.4244 33.4599C25.8126 33.4599 25.3148 32.9621 25.3148 32.3502C25.3148 31.7384 25.8126 31.2406 26.4244 31.2406Z" fill="#3BB77E"/>
<path d="M32.0183 30.0814C33.9237 30.0814 35.474 28.5311 35.474 26.6257C35.474 24.7202 33.9237 23.1699 32.0183 23.1699C30.1128 23.1699 28.5625 24.7202 28.5625 26.6257C28.5625 28.5311 30.1128 30.0814 32.0183 30.0814ZM32.0183 25.5158C32.6301 25.5158 33.1279 26.0137 33.1279 26.6255C33.1279 27.2374 32.6301 27.7352 32.0183 27.7352C31.4064 27.7352 30.9086 27.2374 30.9086 26.6255C30.9086 26.0137 31.4064 25.5158 32.0183 25.5158Z" fill="#3BB77E"/>
<path d="M30.3017 34.7683C30.1387 35.5351 29.7031 36.2364 29.042 36.7965C27.5571 38.0543 26.7811 39.8917 26.9128 41.8375C27.118 44.8684 29.5605 47.288 32.5943 47.4655C33.5948 47.5237 34.599 47.3346 35.4993 46.9175C35.9541 46.7068 36.4973 46.7068 36.9521 46.9175C37.7457 47.2852 38.6201 47.4758 39.5013 47.4758C39.6199 47.4758 39.7387 47.4724 39.8573 47.4655C42.891 47.2878 45.3334 44.8683 45.5386 41.8374C45.6703 39.8915 44.8942 38.0541 43.4095 36.7965C42.7484 36.2364 42.3128 35.5351 42.15 34.7684C41.8671 33.4373 41.1618 32.2672 40.1103 31.3846C37.8955 29.5255 34.5557 29.5255 32.341 31.3846C31.2897 32.2674 30.5846 33.4374 30.3017 34.7683ZM33.8495 33.1814C35.2041 32.0442 37.2472 32.0442 38.6018 33.1814C39.2487 33.7243 39.682 34.4417 39.8549 35.2559C40.1269 36.5356 40.8315 37.6874 41.8929 38.5865C42.803 39.3574 43.2786 40.4846 43.1977 41.6789C43.0721 43.5339 41.5771 45.0147 39.72 45.1234C39.0965 45.1598 38.4964 45.0474 37.9381 44.7887C37.3939 44.5366 36.8098 44.4106 36.2256 44.4106C35.6415 44.4106 35.0571 44.5367 34.513 44.7887C33.9548 45.0474 33.355 45.1601 32.7313 45.1234C30.8741 45.0147 29.3791 43.5339 29.2535 41.6791C29.1726 40.4846 29.6483 39.3574 30.5584 38.5865C31.6197 37.6875 32.3245 36.5358 32.5964 35.2559C32.7696 34.4418 33.2028 33.7244 33.8495 33.1814Z" fill="#3BB77E"/>
<path d="M82.3783 62.801C84.8696 59.6224 86.2406 55.6681 86.2406 51.616C86.2406 41.6044 78.0955 33.4592 68.0838 33.4592C66.2122 33.4592 64.3835 33.7405 62.6268 34.2947C62.5004 28.4952 62.1997 22.7034 61.7228 16.9426C61.5523 14.8963 61.9988 12.8999 63.0142 11.1692C64.3941 8.81548 65.6299 5.60031 63.6792 3.6495C62.8431 2.814 60.6996 1.60282 51.7765 0.73478C46.2067 0.193001 40.0906 0 36.224 0C32.3574 0 26.2413 0.193001 20.6713 0.734936C11.7482 1.60297 9.60483 2.81415 8.76839 3.64997C6.81789 5.60031 8.05363 8.81548 9.43373 11.1697C10.4489 12.9001 10.8955 14.8964 10.7248 16.9423C10.6587 17.7334 10.5931 18.5756 10.519 19.5932C10.4718 20.2393 10.9574 20.8014 11.6035 20.8485C12.2498 20.8959 12.8117 20.4101 12.8588 19.764C12.9325 18.755 12.9972 17.9205 13.0627 17.1377C13.2737 14.6068 12.7185 12.1325 11.4574 9.98272C11.3933 9.87324 11.3332 9.7661 11.2735 9.65912C14.8248 8.16375 26.4221 7.18858 36.2241 7.18858C39.955 7.18858 45.8753 7.37251 51.302 7.88848C57.295 8.45842 59.9758 9.16676 61.171 9.66506C61.1123 9.77001 61.0535 9.87511 60.9905 9.98256C59.7293 12.1325 59.1739 14.6066 59.3847 17.137C60.6009 31.8292 60.6649 46.7252 59.5819 61.4322C57.0651 61.4316 54.5478 61.4514 52.0438 61.4924C51.7224 57.5019 48.3723 54.3532 44.3005 54.3532C40.0169 54.3532 36.5319 57.8382 36.5319 62.1218C36.5319 63.9933 37.202 65.7778 38.4024 67.1767C38.1021 67.5266 37.8351 67.9005 37.6035 68.294C30.5869 68.3455 23.4789 68.003 16.4659 67.2721C14.6324 67.0821 13.1927 65.6055 13.0426 63.7604C11.9731 50.7091 11.809 37.4696 12.5549 24.4095C12.5918 23.7627 12.0974 23.2084 11.4507 23.1714C10.8041 23.1348 10.2497 23.6289 10.2126 24.2756C9.46047 37.4438 9.62595 50.7927 10.7042 63.951C10.9457 66.921 13.2672 69.2989 16.2233 69.6053C22.858 70.2968 29.5761 70.6462 36.2266 70.646C36.3835 70.646 36.5401 70.6438 36.6969 70.6434C36.5892 71.1609 36.5318 71.6922 36.5318 72.2313C36.5318 76.5149 40.0167 79.9998 44.3003 79.9998C48.3721 79.9998 51.7222 76.8513 52.0436 72.8607C56.9774 72.9417 61.9619 72.9417 66.8944 72.8607C67.2158 76.8511 70.5661 79.9998 74.6379 79.9998C75.8879 79.9998 77.1319 79.6953 78.2353 79.119C78.8096 78.8192 79.032 78.1105 78.7322 77.5362C78.4321 76.9619 77.7234 76.7393 77.1494 77.0395C76.3688 77.447 75.5238 77.6538 74.6379 77.6538C71.6479 77.6538 69.2153 75.2213 69.2153 72.2313C69.2153 72.0956 69.2225 71.9476 69.2379 71.7656C69.2659 71.4346 69.1522 71.1073 68.9251 70.8648C68.698 70.6224 68.379 70.4876 68.0466 70.494C62.3558 70.6027 56.5839 70.6027 50.8917 70.494C50.5613 70.4877 50.2405 70.6224 50.0132 70.8648C49.7861 71.1073 49.6724 71.4346 49.7004 71.7656C49.7157 71.9464 49.7229 72.0945 49.7229 72.2313C49.7229 75.2213 47.2904 77.6538 44.3005 77.6538C41.3105 77.6538 38.878 75.2213 38.878 72.2313C38.878 70.6255 39.5855 69.1105 40.8194 68.0748C41.0848 67.8519 41.2383 67.523 41.2383 67.1764C41.2383 66.8298 41.085 66.5009 40.8194 66.278C39.5855 65.2423 38.878 63.7274 38.878 62.1214C38.878 59.1315 41.3105 56.699 44.3005 56.699C47.2904 56.699 49.7229 59.1315 49.7229 62.1214C49.7229 62.2583 49.7157 62.4064 49.7004 62.5872C49.6724 62.9182 49.7861 63.2455 50.0132 63.4879C50.2405 63.7304 50.5609 63.866 50.8917 63.8588C56.5837 63.7502 62.3556 63.7502 68.0466 63.8588C68.3793 63.866 68.698 63.7304 68.9251 63.4879C69.1522 63.2455 69.2659 62.9182 69.2379 62.5872C69.2225 62.4052 69.2153 62.2572 69.2153 62.1214C69.2153 59.1315 71.6479 56.699 74.6379 56.699C77.6286 56.699 80.062 59.1315 80.062 62.1214C80.062 63.7277 79.3541 65.2425 78.1194 66.2775C77.8537 66.5004 77.7001 66.8295 77.7001 67.1764C77.7001 67.5233 77.8535 67.8524 78.1194 68.0752C79.3541 69.1103 80.062 70.6252 80.062 72.2313C80.062 72.9161 79.9362 73.5831 79.6881 74.2137C79.4509 74.8167 79.7476 75.4975 80.3504 75.7347C80.9533 75.9718 81.6343 75.6753 81.8714 75.0725C82.2273 74.1673 82.408 73.2115 82.408 72.2315C82.408 70.3596 81.7376 68.5751 80.5366 67.1765C81.5916 65.9485 82.2367 64.4223 82.3783 62.801ZM36.2243 4.84239C36.0121 4.84239 16.6514 4.87617 10.3255 7.53674C10.0024 6.49478 10.0256 5.71073 10.4272 5.30909C10.7445 4.99191 12.4376 3.89302 20.8985 3.06987C26.385 2.53623 32.4126 2.34604 36.224 2.34604C40.0354 2.34604 46.063 2.53623 51.5494 3.06987C60.0103 3.89302 61.7034 4.99191 62.0204 5.30878C62.4224 5.71073 62.4457 6.49462 62.1226 7.53658C55.7965 4.87632 36.4367 4.84239 36.2243 4.84239ZM74.6382 54.3531C70.5664 54.3531 67.2161 57.5016 66.8947 61.4922C65.2458 61.4652 63.5904 61.4506 61.9336 61.4416C62.5322 53.2487 62.7793 44.9985 62.6701 36.7567C64.3992 36.1251 66.2166 35.8053 68.0838 35.8053C76.8019 35.8053 83.8946 42.898 83.8946 51.616C83.8946 54.3243 83.1919 56.983 81.8848 59.324C80.7592 56.4192 77.9363 54.3531 74.6382 54.3531Z" fill="#3BB77E"/>
</g>
</g>
<defs>
<clipPath id="clip0_5_5895">
<rect x="7" width="80" height="80" rx="10" fill="white"/>
</clipPath>
<clipPath id="clip1_5_5895">
<rect width="80" height="80" fill="white" transform="translate(7)"/>
</clipPath>
</defs>
</svg>
