<svg width="94" height="87" viewBox="0 0 94 87" fill="none" xmlns="http://www.w3.org/2000/svg">
<g clip-path="url(#clip0_5_5909)">
<path d="M66 54H48C44.6863 54 42 56.6863 42 60V72C42 75.3137 44.6863 78 48 78H66C69.3137 78 72 75.3137 72 72V60C72 56.6863 69.3137 54 66 54Z" fill="#FDC040"/>
<path d="M13 7.5L14 10L17 9L23 8.5L32.5 8L42.5 8.5L59.5 10L61 8.5L62 6C62.1667 5.33333 62.5 3.9 62.5 3.5C62.5 3.1 61.1667 3 60.5 3L59 3.5L57.5 4H54.5C54 3.5 52.9 2.5 52.5 2.5C52.1 2.5 51.3333 1.83333 51 1.5H48.5L47 3L45 4H43L40.5 2.5L38 1L35.5 1.5L34 3L31.5 4L29 3.5C28.5 3.33333 27.4 3 27 3C26.6 3 26.1667 2 26 1.5H24.5L22.5 2C22.1667 2.33333 21.4 3 21 3C20.5 3 19.5 3.5 19.5 4C19.5 4.5 18 4 17.5 4C17 4 16.5 4 16 3.5C15.6 3.1 14.8333 3 14.5 3H12.5L12 5L13 7.5Z" fill="#FDC040"/>
<path d="M37.1363 51.3657C42.4382 51.3657 47.4354 49.8162 51.2082 47.0024C55.0837 44.1118 57.218 40.2364 57.218 36.0901C57.218 31.9438 55.0837 28.0684 51.2082 25.1779C47.4354 22.3641 42.4382 20.8145 37.1363 20.8145C31.8345 20.8145 26.8372 22.3641 23.0645 25.1779C19.1891 28.0684 17.0547 31.9438 17.0547 36.0901C17.0547 40.2364 19.189 44.1118 23.0645 47.0024C26.8372 49.8162 31.8345 51.3657 37.1363 51.3657ZM19.3985 36.0901C19.3985 28.9595 27.3557 23.1583 37.1363 23.1583C46.917 23.1583 54.8742 28.9595 54.8742 36.0901C54.8742 43.2207 46.917 49.0219 37.1363 49.0219C27.3557 49.0219 19.3985 43.2207 19.3985 36.0901Z" fill="#3BB77E"/>
<path d="M81.1889 68.7062C82.1649 67.9488 82.696 67.0141 82.696 65.9922C82.696 64.9705 82.165 64.0358 81.1889 63.2784C82.0432 62.6861 82.623 62.0009 82.9207 61.2293C83.1802 60.5567 83.3457 59.4732 82.6599 58.1308C82.1253 57.085 81.2788 56.4064 80.2114 56.1681C78.5015 55.7866 76.2374 56.5566 73.4688 58.4568C72.1611 54.8953 68.8301 52.3456 64.8383 52.1648C64.0009 52.1268 63.1614 52.0971 62.3209 52.0712C63.1284 38.1217 62.8723 23.9894 61.5565 10.0343C61.9896 9.33659 62.8184 7.79187 63.3386 5.48933C63.6519 4.10336 63.062 2.74005 61.8364 2.01613C60.6293 1.30346 59.1741 1.44253 58.1293 2.37067C57.6047 2.83662 57.1091 3.12537 56.26 3.12537C55.1448 3.12537 54.6468 2.63708 53.8931 1.89801C53.0307 1.05221 51.9576 0 49.8852 0C47.813 0 46.74 1.05221 45.8778 1.89769C45.124 2.63677 44.626 3.12506 43.5112 3.12506C42.3961 3.12506 41.8983 2.63677 41.1446 1.89769C40.2822 1.05221 39.209 0 37.1368 0C35.0646 0 33.9916 1.05221 33.1296 1.89769C32.3758 2.63677 31.8778 3.12506 30.7629 3.12506C29.6481 3.12506 29.1503 2.63677 28.3963 1.89769C27.5343 1.05221 26.4613 0 24.3891 0C22.317 0 21.2442 1.05221 20.3821 1.89769C19.6283 2.63677 19.1305 3.12506 18.016 3.12506C17.1672 3.12506 16.6716 2.83631 16.1472 2.37052C15.1028 1.44253 13.6481 1.30331 12.4407 2.01566C11.2149 2.73927 10.6252 4.10242 10.9384 5.48839C11.4587 7.79187 12.2879 9.3369 12.7211 10.0344C12.5184 12.1831 12.3365 14.3743 12.1823 16.5608C12.1367 17.2064 12.6231 17.7668 13.2687 17.8122C13.9173 17.8572 14.4747 17.3713 14.5203 16.7256C14.6639 14.6903 14.8305 12.6492 15.0169 10.6443C29.7006 8.87627 44.5773 8.87627 59.2618 10.6443C60.5373 24.3814 60.7754 38.2873 59.9766 52.0146C56.2722 51.9495 52.554 51.9976 48.8713 52.1645C44.8795 52.3454 41.5485 54.895 40.2408 58.4565C37.4723 56.5563 35.2079 55.7861 33.4981 56.1678C32.4308 56.4061 31.5842 57.0847 31.0497 58.1307C30.3639 59.4729 30.5293 60.5563 30.7887 61.229C31.0079 61.7973 31.3814 62.3181 31.9034 62.79C26.2958 62.6315 20.6281 62.2129 15.0169 61.5367C13.7786 48.2017 13.514 34.6976 14.2309 21.3845C14.2658 20.7382 13.77 20.186 13.1237 20.1513C12.4735 20.1157 11.9254 20.6123 11.8904 21.2585C11.1579 34.861 11.4429 48.6594 12.7339 62.279C12.3042 62.9667 11.4637 64.5191 10.9388 66.8435C10.6251 68.2299 11.2148 69.5937 12.441 70.3178C13.6479 71.0306 15.1033 70.8909 16.1472 69.9632C16.6724 69.4973 17.1683 69.2085 18.0163 69.2085C19.1315 69.2085 19.6296 69.6968 20.3835 70.4361C21.2459 71.2816 22.319 72.3336 24.3913 72.3336C26.4638 72.3336 27.5369 71.2814 28.3993 70.4361C29.1531 69.6968 29.6514 69.2085 30.7664 69.2085C31.1444 69.2085 31.4519 69.266 31.7205 69.3684C31.2936 69.7936 30.9809 70.2561 30.7883 70.7554C30.5289 71.4281 30.3634 72.5116 31.0492 73.8539C31.5837 74.8997 32.4303 75.5784 33.4977 75.8166C33.7818 75.8801 34.081 75.9116 34.3955 75.9116C35.9735 75.9116 37.9318 75.1108 40.2398 73.5269C41.5472 77.089 44.8785 79.6391 48.8708 79.8198C51.5198 79.9398 54.187 79.9998 56.8547 79.9998C59.5218 79.9998 62.1895 79.9398 64.838 79.8198C68.8302 79.6389 72.1614 77.0889 73.4688 73.5267C75.7768 75.1108 77.7351 75.9115 79.3131 75.9115C79.6275 75.9115 79.927 75.8798 80.2109 75.8165C81.2783 75.5782 82.1249 74.8996 82.6594 73.8536C83.3452 72.5114 83.1797 71.428 82.9202 70.7553C82.623 69.9836 82.0432 69.2984 81.1889 68.7062ZM14.4562 8.35282C14.0958 7.68468 13.5798 6.54466 13.2245 4.97197C13.0956 4.40118 13.5042 4.10961 13.6323 4.03399C13.7872 3.94258 14.1909 3.76773 14.5908 4.12289C15.2963 4.74947 16.3232 5.46886 18.016 5.46886C20.088 5.46886 21.1609 4.41665 22.0231 3.57116C22.7767 2.83209 23.2747 2.3438 24.3892 2.3438C25.5039 2.3438 26.0018 2.83209 26.7557 3.57116C27.6176 4.41665 28.6907 5.46886 30.7629 5.46886C32.8352 5.46886 33.9083 4.41665 34.7704 3.57116C35.5241 2.83209 36.0221 2.3438 37.1368 2.3438C38.2517 2.3438 38.7497 2.83209 39.5034 3.57116C40.3658 4.41665 41.4389 5.46886 43.5112 5.46886C45.5834 5.46886 46.6564 4.41665 47.5186 3.57116C48.2723 2.83209 48.7703 2.3438 49.8852 2.3438C51.0004 2.3438 51.4983 2.83209 52.2521 3.57116C53.1146 4.41665 54.1878 5.46886 56.2602 5.46886C57.953 5.46886 58.9801 4.74962 59.6858 4.12289C60.0852 3.76789 60.4898 3.94242 60.6448 4.03414C60.7731 4.10992 61.1818 4.40149 61.0526 4.97244C60.6973 6.5456 60.181 7.68578 59.8215 8.35266C44.7654 6.517 29.5107 6.517 14.4562 8.35282ZM63.4361 77.5298C61.8582 77.5893 60.2754 77.6292 58.6905 77.6457C59.3912 72.505 60.6915 67.3152 62.5653 62.1986C62.7878 61.5907 62.4756 60.9178 61.8678 60.6951C61.2598 60.4726 60.5871 60.7849 60.3643 61.3926C58.3935 66.7746 57.0361 72.2395 56.3238 77.6531C54.7484 77.6482 53.1742 77.622 51.6037 77.5748C53.192 66.0239 57.4286 57.1438 58.8918 54.3403C60.3663 54.3575 61.839 54.395 63.3073 54.4493C62.9686 55.1414 62.5695 55.9905 62.137 56.9786C61.8775 57.5714 62.1475 58.2625 62.7404 58.5221C62.8934 58.5891 63.0528 58.6208 63.2098 58.6208C63.6612 58.6208 64.0914 58.3585 64.2839 57.9186C64.9014 56.5084 65.4453 55.3962 65.8333 54.6389C67.2213 54.9114 68.4632 55.57 69.4449 56.4995C67.5833 60.6673 64.6702 68.3049 63.4361 77.5298ZM26.7588 68.7621C26.0049 69.5012 25.5066 69.9896 24.3916 69.9896C23.2765 69.9896 22.7784 69.5014 22.0246 68.7623C21.1621 67.9168 20.089 66.8646 18.0166 66.8646C16.3253 66.8646 15.2981 67.5835 14.5912 68.2106C14.1915 68.5656 13.7878 68.391 13.6331 68.2995C13.5047 68.2237 13.0959 67.932 13.2253 67.3602C13.6072 65.6688 14.1758 64.4767 14.5361 63.8361C20.0548 64.5072 25.6292 64.938 31.1511 65.1147C31.0612 65.3983 31.0139 65.6914 31.0139 65.9924C31.0139 66.2964 31.062 66.5927 31.1539 66.879C31.0284 66.8705 30.9003 66.8647 30.767 66.8647C28.6943 66.8646 27.6212 67.9168 26.7588 68.7621ZM34.0088 73.5291C33.7499 73.4713 33.4166 73.3347 33.1369 72.7874C32.8205 72.1678 32.8931 71.8123 32.9756 71.5989C33.2183 70.97 34.1033 70.3389 35.4677 69.8218C35.9274 69.6476 36.2296 69.2051 36.2245 68.7135C36.2193 68.222 35.9079 67.7859 35.4446 67.6215C34.0107 67.1124 33.3577 66.4201 33.3577 65.9921C33.3577 65.5641 34.0108 64.8717 35.4446 64.3627C35.9079 64.1983 36.2193 63.7622 36.2245 63.2706C36.2295 62.779 35.9274 62.3365 35.4677 62.1625C34.1033 61.6454 33.2183 61.0145 32.9756 60.3854C32.8933 60.172 32.8205 59.8165 33.1369 59.1971C33.4166 58.6496 33.7499 58.513 34.0088 58.4552C34.5608 58.3319 36.1907 58.348 39.6861 60.9396C39.6756 61.0571 39.6653 61.1746 39.6591 61.2934C39.4945 64.4111 39.4945 67.5727 39.6591 70.6904C39.6653 70.8092 39.6756 70.9267 39.6861 71.0442C36.191 73.636 34.5616 73.6522 34.0088 73.5291ZM41.9994 61.4171C42.1982 57.6483 45.1982 54.6772 48.9774 54.5061C49.0161 54.5043 49.0552 54.5033 49.0939 54.5014C47.4859 57.8057 44.4834 64.7533 42.799 73.5358C42.338 72.641 42.0558 71.6364 41.9994 70.5675C41.8394 67.5316 41.8394 64.453 41.9994 61.4171ZM44.7576 75.911C46.4954 65.2297 50.4097 57.0166 51.7637 54.405C53.2631 54.3612 54.7661 54.3365 56.2698 54.3315C54.4201 58.0914 50.7004 66.6841 49.2503 77.4893C49.1594 77.4854 49.0683 77.4826 48.9774 77.4785C47.3805 77.4062 45.9237 76.8324 44.7576 75.911ZM71.7101 70.5673C71.5311 73.9633 69.077 76.7107 65.8283 77.3464C66.9397 69.4814 69.289 62.8464 71.0387 58.7118C71.4233 59.539 71.6592 60.4515 71.7101 61.417C71.8701 64.453 71.8701 67.5315 71.7101 70.5673ZM80.5728 72.7872C80.2931 73.3347 79.9598 73.4713 79.7009 73.5291C79.1486 73.6521 77.5189 73.6361 74.0236 71.0447C74.0341 70.9272 74.0444 70.8095 74.0507 70.6908C74.2152 67.573 74.2152 64.4114 74.0507 61.2937C74.0444 61.1749 74.0341 61.0574 74.0236 60.9399C77.5185 58.3485 79.1481 58.3321 79.7009 58.4555C79.9598 58.5133 80.2931 58.6499 80.5728 59.1971C80.8892 59.8166 80.8164 60.1721 80.7339 60.3856C80.4913 61.0145 79.6062 61.6456 78.2418 62.1625C77.7823 62.3367 77.4801 62.7792 77.4851 63.2708C77.4903 63.7623 77.8017 64.1984 78.265 64.3628C79.699 64.8719 80.352 65.5643 80.352 65.9922C80.352 66.4202 79.6989 67.1126 78.265 67.6216C77.8017 67.786 77.4903 68.2221 77.4851 68.7137C77.4799 69.2053 77.7821 69.6478 78.2418 69.822C79.6062 70.3389 80.4913 70.97 80.7341 71.5991C80.8163 71.8123 80.8892 72.1678 80.5728 72.7872Z" fill="#3BB77E"/>
<path d="M29.2951 32.2232C34.4983 31.5321 39.774 31.5321 44.9769 32.2232C45.0293 32.2301 45.0813 32.2335 45.1327 32.2335C45.7113 32.2335 46.2146 31.8051 46.2929 31.2159C46.3782 30.5743 45.9271 29.9851 45.2855 29.8999C39.8784 29.1818 34.3944 29.1818 28.9865 29.8999C28.3449 29.9851 27.8938 30.5743 27.9791 31.2159C28.0644 31.8574 28.6535 32.3082 29.2951 32.2232Z" fill="#3BB77E"/>
<path d="M46.2929 41.2715C46.2078 40.63 45.6181 40.1793 44.9769 40.2642C39.774 40.9553 34.4983 40.9553 29.2951 40.2642C28.6538 40.179 28.0643 40.63 27.9791 41.2715C27.8938 41.9131 28.3449 42.5023 28.9865 42.5875C31.6903 42.9466 34.413 43.1261 37.1359 43.1261C39.8589 43.1261 42.5817 42.9466 45.2854 42.5875C45.9273 42.5023 46.3782 41.9131 46.2929 41.2715Z" fill="#3BB77E"/>
<path d="M49.4676 36.2442C49.4676 35.597 48.943 35.0723 48.2957 35.0723H25.9766C25.3293 35.0723 24.8047 35.597 24.8047 36.2442C24.8047 36.8914 25.3293 37.4161 25.9766 37.4161H48.2957C48.9429 37.4161 49.4676 36.8914 49.4676 36.2442Z" fill="#3BB77E"/>
</g>
<defs>
<clipPath id="clip0_5_5909">
<rect x="7" width="80" height="80" rx="10" fill="white"/>
</clipPath>
</defs>
</svg>
