<svg width="94" height="87" viewBox="0 0 94 87" fill="none" xmlns="http://www.w3.org/2000/svg">
<g clip-path="url(#clip0_5_5937)">
<g clip-path="url(#clip1_5_5937)">
<mask id="mask0_5_5937" style="mask-type:luminance" maskUnits="userSpaceOnUse" x="7" y="0" width="80" height="80">
<path d="M87 0H7V80H87V0Z" fill="white"/>
</mask>
<g mask="url(#mask0_5_5937)">
<path d="M32 69.5L25 71L23.5 72L22 74L21 75.5L24 76.5C25.5 77 27.5 77.5 28.5 78C29.3 78.4 37.1667 78.5 41 78.5C57.8 78.1 70.6667 66.3333 75 60.5L81 50.5L83.5 41L84.5 27.5C83.6667 24 82 16.9 82 16.5C82 16.1 81 14.6667 80.5 14L77.5 14.5L76.5 18V19C76.3333 20 76 22.1 76 22.5C76 22.9 74.6667 26.3333 74 28L71.5 35L66.5 43.5L59 53L52 59.5L41.5 65.5L32 69.5Z" fill="#FDC040"/>
<path d="M82.5933 13.6284L79.7415 3.50535C79.3478 2.10784 78.1608 1.10421 76.7174 0.948376L74.5488 0.714234C73.5525 0.606384 72.5533 0.928838 71.8076 1.59813C71.0617 2.26743 70.6336 3.22619 70.6329 4.22841L70.6279 13.4377C69.4403 17.6726 67.8714 21.7875 65.9515 25.7326C65.1784 23.9507 64.2393 22.2337 63.1366 20.6075C62.015 18.9559 60.7672 17.4174 59.428 16.035C56.863 13.3868 52.9472 12.4825 49.4511 13.7319C47.0089 14.6041 44.4743 15.8063 41.9154 17.3033C41.7983 13.3567 40.8805 9.99524 40.0687 7.75588C39.0272 4.8827 37.5967 2.31354 36.3349 1.05091C34.5601 -0.723917 31.4259 -0.0632216 29.7226 1.6394C28.2878 3.07395 27.5237 5.66109 30.0926 8.23104C31.5051 9.64356 32.6766 12.5746 33.4597 16.6032C31.3218 15.4289 29.2087 14.4631 27.1614 13.732C23.6673 12.4832 19.7509 13.3871 17.1849 16.0347C16.3923 16.8523 15.6254 17.7325 14.9061 18.6504C14.5068 19.16 14.5962 19.897 15.1057 20.2962C15.6154 20.6954 16.3521 20.6063 16.7514 20.0966C17.4203 19.2431 18.1324 18.4257 18.8683 17.6667C20.796 15.6775 23.7415 14.9998 26.3727 15.94C28.7163 16.7768 31.16 17.9402 33.636 19.3976C36.5167 21.0927 40.0956 21.0927 42.9766 19.3976C45.4519 17.9404 47.8956 16.7771 50.2398 15.94C52.8721 14.9993 55.8174 15.6772 57.744 17.6665C58.9894 18.9523 60.1512 20.3849 61.1966 21.9244C62.593 23.984 63.7092 26.1987 64.5265 28.512C61.1206 34.8198 56.7971 40.6416 51.6828 45.7559C43.951 53.4888 34.5929 59.4195 24.3867 63.0943C17.99 59.1365 13.4045 52.979 11.4482 45.6952C9.44565 38.2389 10.4319 30.4772 14.2256 23.8396C14.5468 23.2775 14.3516 22.5613 13.7895 22.2401C13.2276 21.9189 12.5114 22.1143 12.19 22.6762C8.08768 29.854 7.02013 38.2448 9.18431 46.3028C11.1314 53.5526 15.4913 59.7691 21.5717 64.0439C20.9022 64.2546 20.23 64.457 19.5541 64.6484C19.5516 64.6491 19.5491 64.65 19.5466 64.6506L19.5429 64.6517L19.5407 64.6527C19.3076 64.7192 19.0985 64.8565 18.9449 65.0495L14.8317 70.2194C14.4647 70.6807 14.4972 71.3426 14.9077 71.7656L19.5483 76.5491C19.6664 76.6709 19.8086 76.7631 19.9635 76.8236C19.9672 76.8251 19.9704 76.8276 19.9743 76.8292C25.5238 78.936 31.3713 79.9998 37.2505 79.9998C40.5356 79.9998 43.8311 79.6675 47.0886 78.9993C56.4115 77.0871 64.9125 72.5035 71.6725 65.7444C76.5323 60.8846 80.2366 55.1933 82.6822 48.8286C82.9144 48.2244 82.6128 47.5462 82.0084 47.3139C81.4035 47.0815 80.7256 47.3834 80.4937 47.9877C78.1665 54.0439 74.641 59.4603 70.0148 64.0865C63.5804 70.5203 55.4896 74.8827 46.6177 76.7026C38.5552 78.3564 30.2558 77.8478 22.4995 75.2416L25.8718 71.7654C26.3179 71.3057 26.3122 70.5733 25.8596 70.1205L22.0809 66.3406C33.8153 62.6821 44.5891 56.1668 53.3414 47.4131C62.4311 38.3235 69.1035 27.0657 72.6765 14.8071L80.6594 15.1345C84.038 24.1994 84.4899 34.2929 81.922 43.6465C81.7505 44.2708 82.1178 44.9159 82.7421 45.0873C83.3662 45.2591 84.0114 44.8916 84.1829 44.2672C86.9453 34.2045 86.3799 23.3267 82.5933 13.6284ZM36.0748 17.9516C35.2134 12.4091 33.7601 8.58225 31.7511 6.57313C30.5585 5.38006 30.4305 4.24733 31.3808 3.29731C32.3429 2.33511 34.0068 2.03797 34.6771 2.70836C36.399 4.43161 39.596 10.8404 39.583 18.2028C38.4169 18.423 37.2066 18.3405 36.0748 17.9516ZM20.3896 74.0492L17.3079 70.8726L19.9618 67.5371L23.3851 70.9615L20.3896 74.0492ZM73.3734 3.34311C73.6287 3.11428 73.9572 3.00815 74.2972 3.04519L76.4656 3.27934C76.952 3.33186 77.3521 3.6701 77.4848 4.1412L79.9121 12.7573L72.9731 12.4727L72.9775 4.22966C72.9778 3.88673 73.1183 3.57194 73.3734 3.34311Z" fill="#3BB77E"/>
<path d="M75.2836 17.7854C73.5223 30.3691 67.2369 42.6149 57.5845 52.2673C49.5517 60.2999 39.8056 65.9835 29.3995 68.7038C28.773 68.8676 28.3981 69.5082 28.5619 70.1345C28.6996 70.6615 29.1749 71.0106 29.6952 71.0106C29.7934 71.0106 29.8931 70.9981 29.9924 70.9721C40.8011 68.1465 50.9155 62.2518 59.2426 53.925C69.2529 43.9147 75.7744 31.1955 77.6056 18.1102C77.6953 17.469 77.2483 16.8765 76.607 16.7868C75.9663 16.6972 75.3731 17.1441 75.2836 17.7854Z" fill="#3BB77E"/>
</g>
</g>
</g>
<defs>
<clipPath id="clip0_5_5937">
<rect x="7" width="80" height="80" rx="10" fill="white"/>
</clipPath>
<clipPath id="clip1_5_5937">
<rect width="80" height="80" fill="white" transform="translate(7)"/>
</clipPath>
</defs>
</svg>
