<svg width="94" height="87" viewBox="0 0 94 87" fill="none" xmlns="http://www.w3.org/2000/svg">
<g clip-path="url(#clip0_5_5950)">
<g clip-path="url(#clip1_5_5950)">
<path d="M77 78C81.9706 78 86 73.9706 86 69C86 64.0294 81.9706 60 77 60C72.0294 60 68 64.0294 68 69C68 73.9706 72.0294 78 77 78Z" fill="#FDC040"/>
<path d="M9 35L10 50.5L19 59.5L20 55L21 38.5V23.5L19 21.5L17 20.5H12L9 22.5V26V35Z" fill="#FDC040"/>
<path d="M56.7571 31.3678L57.4749 30.0012L55.1181 28.7632L54.4003 30.1305C53.0941 32.622 50.9291 34.5555 48.307 35.5737V23.7459C51.39 22.7934 53.979 20.6739 55.5212 17.8392L56.1369 16.6995L53.793 15.4343L53.178 16.5727C52.1065 18.542 50.3849 20.0784 48.307 20.919V12.0723H45.6439V20.919C43.566 20.0784 41.8443 18.542 40.7735 16.5727L40.1585 15.4343L37.8146 16.6995L38.4297 17.8392C39.9719 20.6739 42.5608 22.7934 45.6439 23.7459V35.5737C43.0218 34.5555 40.8574 32.622 39.5512 30.1305L38.8334 28.7632L36.4766 30.0012L37.1944 31.3678C38.9622 34.7415 42.0043 37.2706 45.6439 38.3928V50.2206C43.0218 49.2024 40.8574 47.2688 39.5512 44.7774L38.8334 43.4101L36.4766 44.648L37.1944 46.0147C38.9622 49.3884 42.0043 51.9175 45.6439 53.0397V71.9913H48.307V53.0397C51.9472 51.9175 54.9887 49.3884 56.7571 46.0147L57.4749 44.648L55.1181 43.4101L54.4003 44.7774C53.0941 47.2688 50.9291 49.2024 48.307 50.2206V38.3928C51.9472 37.2706 54.9887 34.7415 56.7571 31.3678Z" fill="#3BB77E"/>
<path d="M79.9976 59.3612C81.3154 58.2221 82.305 56.7508 82.8628 55.1L80.333 54.2587C79.8402 55.73 78.8812 57.0004 77.6004 57.8762V52.0176H74.9374V57.8762C73.6585 57.0017 72.7001 55.7339 72.2067 54.2652L69.6769 55.1072C70.2347 56.7573 71.2243 58.2286 72.5422 59.3677C67.714 61.1693 64.8683 66.169 65.7837 71.2403C66.6991 76.3109 71.1131 79.9999 76.2663 79.9999C81.4195 79.9999 85.8341 76.3109 86.7495 71.2403C87.6649 66.169 84.8185 61.1693 79.9904 59.3677L79.9976 59.3612ZM76.2689 77.3167C71.8569 77.3167 68.2797 73.7402 68.2797 69.3275C68.2797 64.9155 71.8569 61.3383 76.2689 61.3383C80.6815 61.3383 84.2581 64.9155 84.2581 69.3275C84.2542 73.7382 80.6796 77.3122 76.2689 77.3167Z" fill="#3BB77E"/>
<path d="M82.9135 1.58456C82.961 1.20552 82.8433 0.824525 82.5904 0.538453C82.3381 0.252382 81.9747 0.0878906 81.5924 0.0878906H77.5978C76.9574 0.0878906 76.4074 0.544305 76.289 1.17431L76.2663 1.29589L76.2442 1.17431C76.1258 0.544305 75.5758 0.0878906 74.9347 0.0878906H70.9401C70.5585 0.0878906 70.1951 0.252382 69.9421 0.538453C69.6899 0.824525 69.5722 1.20552 69.6197 1.58456L72.2717 22.8065V33.6428C72.1793 36.4138 71.7775 39.1659 71.0734 41.8478C70.9154 42.5402 70.8985 43.2587 71.024 43.9582C71.4265 46.1447 73.1364 47.8573 75.3222 48.263C75.6304 48.3163 75.9418 48.3436 76.2546 48.3442C77.6687 48.3462 79.0249 47.7857 80.0255 46.7871C81.0261 45.7878 81.5885 44.4322 81.5885 43.0181C81.5885 42.7593 81.5696 42.5012 81.5326 42.2457L81.2452 40.3498C80.6711 37.1673 80.3421 33.9457 80.2609 30.7131V22.8065L82.9135 1.58456ZM72.4492 2.75095H73.8295L77.5978 22.8481V27.0313L74.8912 22.2955L72.4492 2.75095ZM77.9788 45.0551C77.3689 45.5687 76.5608 45.7819 75.7767 45.6357C74.6968 45.4231 73.8535 44.5765 73.6461 43.496C73.5811 43.1429 73.5889 42.7808 73.6689 42.431C74.4198 39.5586 74.8444 36.6101 74.9347 33.6428V27.7373L77.6609 32.5069C77.8358 35.2701 78.155 38.0216 78.6166 40.7516L78.9014 42.6332C78.9202 42.7593 78.93 42.8874 78.9293 43.0155C78.9293 43.8022 78.5815 44.5492 77.9788 45.0551ZM78.6634 14.0943L77.5783 8.30724L77.655 8.3222L78.7031 2.75095H80.084L78.6634 14.0943Z" fill="#3BB77E"/>
<path d="M68.2792 22.7244C68.2941 19.1531 66.252 15.8919 63.0317 14.3464C62.4037 14.0643 62.1052 13.3413 62.3516 12.6983C63.8308 8.7674 62.4986 4.33264 59.0976 1.86787C55.6966 -0.596893 51.0674 -0.482465 47.7926 2.14679C47.3166 2.53624 46.6327 2.53624 46.1574 2.14679C44.1978 0.564947 41.6797 -0.153482 39.1798 0.156645C36.3419 0.505782 33.8219 2.13834 32.3421 4.58555C30.863 7.03211 30.5886 10.0229 31.5983 12.6983C31.8447 13.3413 31.5456 14.0643 30.9176 14.3464C28.354 15.5908 26.501 17.9399 25.8886 20.7232C25.2755 23.5059 25.9711 26.416 27.7753 28.6221C28.1297 29.0668 28.1297 29.6974 27.7753 30.1428C24.9673 33.5737 24.9673 38.5091 27.7753 41.94C28.1264 42.4061 28.1108 43.0518 27.7383 43.5004C25.5043 46.2655 25.0382 50.0605 26.5355 53.284C28.0328 56.5075 31.2336 58.5991 34.7873 58.6758L36.5382 70.9262C37.282 76.1184 41.7298 79.9745 46.9746 79.9745C52.2202 79.9745 56.6679 76.1184 57.4117 70.9262L59.1626 58.6758C62.717 58.5991 65.9184 56.5069 67.4158 53.2821C68.9124 50.0566 68.4443 46.261 66.2091 43.4965C65.8365 43.0479 65.8209 42.4016 66.1714 41.9361C68.9801 38.5052 68.9801 33.5698 66.1714 30.1382C65.8177 29.6935 65.8177 29.0629 66.1714 28.6181C67.5315 26.9544 68.2759 24.8732 68.2792 22.7244ZM64.1142 31.8293C65.0843 33.0184 65.6148 34.5054 65.6161 36.0398C65.622 37.5761 65.0901 39.0663 64.1129 40.2515C62.9576 41.6936 62.968 43.7481 64.1383 45.1784C65.7461 47.1738 66.066 49.9149 64.9607 52.2269C63.8555 54.5388 61.5214 56.0108 58.9584 56.0127C58.701 56.0049 58.4435 55.9802 58.1893 55.9399C57.8415 55.8918 57.4897 55.9848 57.2102 56.1967C56.9312 56.4093 56.7485 56.724 56.7017 57.0712L54.7766 70.5517C54.2194 74.4325 50.8951 77.314 46.9746 77.314C43.0548 77.314 39.7299 74.4325 39.1733 70.5517L37.2547 57.0784C37.1214 56.4106 36.5291 55.9341 35.8484 55.9464C35.7886 55.9464 35.7294 55.9503 35.6703 55.9581C33.5533 56.1935 31.4533 55.3892 30.0353 53.7996C27.8547 51.3712 27.7623 47.718 29.8182 45.1823C30.9884 43.752 30.9988 41.6981 29.8435 40.2554C28.8624 39.0702 28.3286 37.5787 28.3332 36.0398C28.3351 34.5054 28.865 33.0184 29.8351 31.8293C30.9962 30.4048 30.9962 28.36 29.8351 26.9349C28.5471 25.3595 28.051 23.2816 28.4892 21.2941C28.9268 19.3072 30.2505 17.6298 32.0814 16.7423C33.9486 15.8561 34.8225 13.6846 34.0884 11.7529C33.6827 10.686 33.5611 9.53199 33.7341 8.40396C34.1983 5.46522 36.5434 3.18315 39.4945 2.80086C41.2812 2.5746 43.0834 3.08563 44.4865 4.21626C45.9428 5.37615 48.0071 5.37615 49.4635 4.21626C50.8652 3.08368 52.6675 2.5707 54.4554 2.79565C57.4059 3.1799 59.751 5.46002 60.2172 8.39875C60.3888 9.52679 60.2666 10.6802 59.8615 11.7471C59.1275 13.6794 60.0007 15.8509 61.8679 16.7364C63.6988 17.6246 65.0225 19.302 65.4607 21.2889C65.8983 23.2758 65.4022 25.3543 64.1142 26.9297C62.9504 28.3555 62.9504 30.4035 64.1142 31.8293Z" fill="#3BB77E"/>
<path d="M7.28148 25.6892L9.51089 74.7173C9.64028 77.6645 12.0673 79.9869 15.0165 79.9869C17.9663 79.9869 20.3927 77.6645 20.5227 74.7173L22.7515 25.6892C22.8406 23.8714 22.1761 22.0977 20.9141 20.7864C20.7594 20.6238 20.5786 20.5003 20.4109 20.3553L21.6742 0.170343L19.0111 0.0052013L17.8278 18.9821C17.3447 18.8508 16.8486 18.7747 16.348 18.7546V0.087772H13.6849V18.7546C13.2116 18.7721 12.7415 18.8404 12.2832 18.9581L11.0219 0L8.3588 0.175544L9.69034 20.1485L9.87563 20.1368C9.60712 20.3345 9.35355 20.5516 9.11689 20.7864C7.85558 22.0984 7.19176 23.872 7.28148 25.6892ZM11.0446 22.627C11.7962 21.8351 12.841 21.3884 13.9326 21.3923H16.1003C17.1919 21.391 18.2368 21.837 18.9909 22.6257C19.7458 23.4143 20.145 24.478 20.0949 25.5683L19.4948 38.7022H15.0165V41.3653H19.3732L18.4038 62.6698H15.0165V65.3329H18.2829L17.8623 74.5977C17.7959 76.1217 16.5417 77.3225 15.0165 77.3225C13.4918 77.3225 12.237 76.1217 12.1714 74.5977L11.1447 52.0176H15.0165V49.3545H11.0219L10.1767 30.713H15.0165V28.05H10.0551L9.94195 25.5683C9.88799 24.4773 10.2872 23.413 11.0446 22.627Z" fill="#3BB77E"/>
<path d="M70.9414 69.3272C70.9407 70.6379 71.4238 71.9025 72.2982 72.8784L74.2825 71.1021C73.6902 70.4403 73.4672 69.5268 73.6876 68.6666C73.9074 67.8058 74.542 67.1121 75.3794 66.8162L74.4925 64.3047C72.3665 65.0595 70.9446 67.0705 70.9414 69.3272Z" fill="#3BB77E"/>
</g>
</g>
<defs>
<clipPath id="clip0_5_5950">
<rect x="7" width="80" height="80" rx="10" fill="white"/>
</clipPath>
<clipPath id="clip1_5_5950">
<rect width="80" height="80" fill="white" transform="translate(7)"/>
</clipPath>
</defs>
</svg>
