<svg width="36" height="87" viewBox="0 0 36 87" fill="none" xmlns="http://www.w3.org/2000/svg">
<g clip-path="url(#clip0_5_5981)">
<g clip-path="url(#clip1_5_5981)">
<mask id="mask0_5_5981" style="mask-type:luminance" maskUnits="userSpaceOnUse" x="7" y="0" width="80" height="80">
<path d="M87 0H7V80H87V0Z" fill="white"/>
</mask>
<g mask="url(#mask0_5_5981)">
<path d="M31.9996 68C25.9996 69.6 23.8329 64 23.4996 61H22.4996C22.1662 60.8333 21.3995 60.5 20.9995 60.5C20.4995 60.5 17.4995 60 16.9996 60C16.4996 60 13.9995 60.5 13.9995 61C13.9995 61.5 11.9996 64 11.4996 64.5C10.9996 65 11.4996 69 11.4996 69.5C11.4996 70 12.4996 72.5 12.4996 73C12.4996 73.5 12.9996 74.5 13.4996 75.5C13.9996 76.5 14.4996 77 15.4996 78C16.4996 79 15.4996 78.5 16.9996 78.5C18.4996 78.5 18.4996 78.5 19.4996 78C20.4996 77.5 21.9996 77.5 22.4996 77.5C22.9996 77.5 23.4996 78.5 24.4996 78.5C25.4996 78.5 25.4996 79 26.4996 78.5C27.4996 78 27.9996 78 28.9996 77.5C29.9996 77 30.9996 74 30.9996 73.5C30.9996 73.1 31.6662 69.6667 31.9996 68Z" fill="#FDC040"/>
<path d="M22.1055 25.6361C21.8243 27.6732 22.4187 29.7344 23.7429 31.3079L25.668 33.7227V56H28.3347V35.8255L30.2611 37.1094C30.7097 37.4082 31.293 37.4082 31.7416 37.1094L35.0013 34.9336L38.2611 37.1068C38.7097 37.4056 39.293 37.4056 39.7416 37.1068L43.0013 34.9336L46.2611 37.1068C46.7097 37.4056 47.293 37.4056 47.7416 37.1068L51.0013 34.9336L54.2611 37.1068C54.7097 37.4056 55.293 37.4056 55.7416 37.1068L59.0013 34.9336L61.668 36.7109V77.3333H32.3347V80H69.668C73.3483 79.9954 76.3301 77.0137 76.3347 73.3333V33.3333C76.3314 33.0404 76.2305 32.7565 76.0482 32.5267L83.7533 12.0137C84.7904 9.25785 84.4108 6.16931 82.7377 3.74678C81.1478 1.39652 78.4929 -0.00842551 75.6563 3.80225e-05C72.0404 0.0338922 68.8197 2.29301 67.5573 5.68168L65.4668 11.2468L63.0013 8.78129V4.00004C63.0013 3.26371 62.4043 2.6667 61.668 2.6667H47.0013C46.265 2.6667 45.668 3.26371 45.668 4.00004V6.2878C44.1608 4.92191 41.8874 4.84444 40.2904 6.10551V4.00004C40.2904 1.81775 38.5215 0.048215 36.3386 0.048215C34.1563 0.048215 32.3868 1.81775 32.3868 4.00004V6.10681C31.6569 5.50199 30.7383 5.17126 29.7904 5.17321C28.6901 5.17061 27.6355 5.61462 26.8679 6.40433C25.2865 8.03389 25.2767 10.6224 26.8451 12.2643L28.0866 13.5456C27.6348 13.7526 27.2246 14.0404 26.8763 14.3945L26.8679 14.3997L26.8549 14.4134C26.5443 14.7324 26.2871 15.0996 26.0944 15.5013L24.5749 12.6947L22.2292 13.9642L25.6771 20.3281C25.5228 20.416 25.3679 20.5013 25.2214 20.6016C25.1667 20.6387 25.1185 20.6816 25.0651 20.7188L19.9056 15.9642L18.0977 17.9251L23.2227 22.6504C22.6341 23.5508 22.2526 24.5703 22.1055 25.6361ZM50.2611 32.224L47.0013 34.3997L43.7416 32.2266C43.293 31.9277 42.7097 31.9277 42.2611 32.2266L39.0319 34.3802C39.0241 34.2467 39.0013 34.1309 39.0013 34.0026C38.9929 31.0723 41.1081 28.5664 43.9981 28.0833C46.8887 27.5996 49.7038 29.2806 50.6491 32.0547C50.5118 32.0905 50.3809 32.1471 50.2611 32.224ZM53.668 33.5091L53.6426 33.4922C53.4825 30.6895 51.9727 28.1387 49.5925 26.6497C47.2129 25.1608 44.2585 24.9186 41.668 26V17.3333H53.668V33.5091ZM73.668 73.3333C73.668 75.5423 71.877 77.3333 69.668 77.3333H64.3347V36.7135L67.0013 34.9336L70.2611 37.1068C70.7097 37.4056 71.293 37.4056 71.7416 37.1068L73.668 35.8255V73.3333ZM70.0534 6.61853C70.9226 4.26827 73.1504 2.6973 75.6563 2.6667C77.6159 2.6628 79.4486 3.6348 80.5456 5.2585C81.7227 6.96358 81.9883 9.13741 81.2572 11.0762L73.0013 33.0664L71.0013 34.3997L67.7416 32.2266C67.293 31.9277 66.7097 31.9277 66.2611 32.2266L63.0013 34.3997L60.2963 32.5964L70.0534 6.61853ZM64.4375 13.9883L57.3614 32.8242L56.3347 33.5091V16.5521L61.668 11.2188L64.4375 13.9883ZM48.3347 5.33337H60.3347V8.00004H48.3347V5.33337ZM47.5534 10.6667H58.4492L54.4493 14.6667H43.5534L47.5534 10.6667ZM28.7709 8.27478C29.0384 7.99873 29.4063 7.84248 29.7904 7.84248C30.1752 7.84314 30.543 7.99873 30.8106 8.27478L32.7683 10.2747C33.1485 10.6628 33.7259 10.7806 34.2279 10.5742C34.7298 10.3672 35.0567 9.87634 35.0534 9.33337V4.00004C35.0319 3.52673 35.2722 3.08012 35.6784 2.83728C36.0853 2.59379 36.5925 2.59379 36.9987 2.83728C37.4056 3.08012 37.6459 3.52673 37.6237 4.00004V9.33337C37.6244 9.87439 37.9519 10.3613 38.4532 10.5658C38.9538 10.7708 39.5287 10.6524 39.9082 10.2669L41.8718 8.26696C42.4343 7.71293 43.3366 7.71293 43.8985 8.26696C44.4779 8.86006 44.4779 9.80668 43.8985 10.3997L39.9707 14.3997L40.0104 14.4401L39.392 15.0586C39.2845 15.1693 39.1979 15.2982 39.1348 15.4388C39.1159 15.4798 39.1055 15.5215 39.0905 15.5638C39.0508 15.6777 39.0267 15.7962 39.0189 15.916C39.0189 15.9453 39.0026 15.9694 39.0026 15.9987V27.7598C38.6993 28.0501 38.4173 28.362 38.1602 28.6934L35.6413 23.3333C34.7116 21.4837 33.0313 20.1231 31.028 19.6003C30.5619 19.4798 30.084 19.4069 29.6029 19.3841L29.2611 18.9837C28.9948 18.6784 28.7937 18.4401 28.7611 18.4069C28.4167 18.0462 28.2676 17.541 28.3614 17.0508C28.4108 16.7721 28.5391 16.5143 28.7305 16.3066L28.7546 16.2839L28.7878 16.2481C29.2709 15.7747 30.0189 15.7051 30.5814 16.0801C31.1472 16.4583 31.9063 16.3496 32.3438 15.8288C32.7813 15.3073 32.7559 14.541 32.2852 14.0495L28.7611 10.4121C28.1888 9.81319 28.1934 8.86853 28.7709 8.27478ZM24.7481 26C24.9219 24.7077 25.6374 23.5501 26.7162 22.8171C27.7858 22.0938 29.1146 21.8646 30.3653 22.1882C31.6153 22.5124 32.666 23.3581 33.2494 24.5104L36.6478 31.7494C36.5638 32.0612 36.4974 32.3776 36.4493 32.6973L35.7468 32.2279C35.2989 31.929 34.7149 31.929 34.267 32.2279L31.0013 34.3997L28.0443 32.4264L27.7585 32.0684L31.196 29.4108L29.5638 27.3014L26.0977 29.9824L25.8015 29.6133C24.9532 28.6133 24.5703 27.2995 24.7481 26Z" fill="#3BB77E"/>
<path d="M12.515 76.6751C13.528 78.7187 15.6152 80.0085 17.8958 80.0007C18.8301 79.9993 19.7506 79.7819 20.5866 79.3659L21.6679 78.8249L22.7506 79.3659C23.5859 79.7819 24.5065 79.9993 25.4401 80.0007C27.7213 80.0085 29.8079 78.7187 30.8216 76.6751L31.2864 75.7422C32.8476 72.6094 33.6627 69.1582 33.6679 65.6582C33.6634 61.7988 30.5364 58.6719 26.6771 58.6673C25.3763 58.6712 24.1022 59.0404 23.0013 59.7337V58.6673C23.0013 55.722 20.6133 53.334 17.6679 53.334V56.0006C19.1406 56.0006 20.3346 57.1947 20.3346 58.6673V59.7337C19.2337 59.0404 17.9596 58.6712 16.6588 58.6673C12.7995 58.6719 9.67253 61.7988 9.66797 65.6582C9.67253 69.1589 10.4876 72.6113 12.0495 75.7448L12.515 76.6751ZM16.6588 61.334C17.806 61.3307 18.9069 61.7871 19.7161 62.6009L20.7252 63.61C21.2461 64.1302 22.0898 64.1302 22.6107 63.61L23.6198 62.6009C24.8568 61.3639 26.7161 60.9941 28.332 61.6634C29.9479 62.3327 31.0013 63.9095 31.0013 65.6582C30.998 68.7454 30.2793 71.7897 28.901 74.5527L28.4362 75.4863C27.8704 76.6224 26.709 77.3385 25.4401 77.334C24.9206 77.3333 24.4082 77.2122 23.9427 76.9805L22.2643 76.1406C21.8887 75.9531 21.4472 75.9531 21.0722 76.1406L19.3945 76.9805C18.929 77.2122 18.416 77.3333 17.8958 77.334C16.6263 77.3379 15.4642 76.6198 14.8997 75.4818L14.4349 74.5488C13.0573 71.7871 12.3385 68.7441 12.3346 65.6582C12.3379 63.2715 14.2721 61.3372 16.6588 61.334Z" fill="#3BB77E"/>
</g>
</g>
</g>
<defs>
<clipPath id="clip0_5_5981">
<rect x="7" width="80" height="80" rx="10" fill="white"/>
</clipPath>
<clipPath id="clip1_5_5981">
<rect width="80" height="80" fill="white" transform="translate(7)"/>
</clipPath>
</defs>
</svg>
