<svg width="94" height="87" viewBox="0 0 94 87" fill="none" xmlns="http://www.w3.org/2000/svg">
<g clip-path="url(#clip0_5_5922)">
<g clip-path="url(#clip1_5_5922)">
<mask id="mask0_5_5922" style="mask-type:luminance" maskUnits="userSpaceOnUse" x="7" y="0" width="80" height="80">
<path d="M87 0H7V80H87V0Z" fill="white"/>
</mask>
<g mask="url(#mask0_5_5922)">
<path d="M59.5 50.5L57.5 55L59 58V59.5L59.5 61.5C60.1667 61.8333 61.6 62.5 62 62.5C62.4 62.5 63.5 62.8333 64 63C64 63.5 63.9 64.6 63.5 65C63.1 65.4 62.3333 65.5 62 65.5C61.6667 66.1667 61 67.6 61 68C61 68.5 60.5 70 60.5 70.5C60.5 70.9 59.5 72.6667 59 73.5L59.5 78C61 78.1667 64.1 78.5 64.5 78.5H72.5C75.1667 77.6667 80.5 75.9 80.5 75.5C80.5 75.1 82.5 74.3333 83.5 74L85.5 70L83.5 65.5L78 54.5L77 54C76.3333 54.1667 74.9 54.4 74.5 54C74 53.5 72.5 53.5 72.5 53C72.5 52.5 71.5 52.5 71.5 52C71.5 51.5 71 51 71 50.5V48.5C71 48 71.5 47.5 71.5 47C71.5 46.6 72.5 46.1667 73 46V44.5C72.6667 43.8333 72 42.4 72 42C72 41.5 70.5 40.5 70 40.5C69.5 40.5 68 40 67.5 40C67.1 40 65.6667 40.6667 65 41L63 44.5L59.5 50.5Z" fill="#FDC040"/>
<path d="M39.5 30L31 29.5L30.5 31.5V36L31 43C31.5 43.1667 32.7 43.6 33.5 44C34.5 44.5 37.5 44 38 44C38.5 44 45 43.5 45.5 43C46 42.5 46.5 41.5 47 41C47.5 40.5 47.5 39 47.5 38.5V34.5C47.5 33.5 47 32 47 31.5C47 31.1 46 30.3333 45.5 30H39.5Z" fill="#FDC040"/>
<path d="M86.4851 68.1252L78.685 52.6062C78.5203 52.2786 78.2117 52.0469 77.8512 51.9801C77.4906 51.9134 77.1195 52.0194 76.8486 52.2664C76.2978 52.7684 75.5809 53.045 74.8303 53.045C73.1717 53.045 71.8224 51.695 71.8224 50.0356C71.8224 48.6018 72.8421 47.3606 74.2473 47.0838C74.6067 47.0131 74.9123 46.7784 75.0734 46.4495C75.2345 46.1205 75.2325 45.7352 75.0681 45.4079L73.104 41.498C72.1614 39.6239 70.2726 38.4597 68.1749 38.4595C68.1751 38.4595 68.1747 38.4595 68.1749 38.4595C67.9721 38.4595 67.7718 38.4736 67.5735 38.495C67.5221 35.6001 67.4475 32.7015 67.3486 29.8575C67.2494 26.9842 66.4046 24.1778 64.9052 21.7415C64.5659 21.1902 63.8441 21.0184 63.293 21.3578C62.7419 21.697 62.57 22.4189 62.9092 22.97C64.1959 25.0608 64.9211 27.4705 65.0063 29.9388C65.1136 33.019 65.1924 36.1637 65.2434 39.298C64.4067 39.8222 63.7109 40.5725 63.2459 41.4967L57.5126 52.9045C55.293 49.4551 52.1853 46.7793 48.5598 46.7793C42.236 46.7793 37.487 54.9185 36.2811 61.1071H36.2053C35.5869 57.9336 34.0367 54.2481 31.8202 51.4092C31.8043 49.1762 31.804 46.933 31.8176 44.6852C33.0284 44.7093 34.242 44.7251 35.4589 44.7251C38.4995 44.7251 41.5525 44.6502 44.5813 44.5011C46.6346 44.4001 48.3011 42.845 48.5439 40.8036C48.8717 38.047 48.8717 35.2515 48.5439 32.4949C48.3011 30.4535 46.6348 28.8985 44.582 28.7975C40.4836 28.596 36.3333 28.5317 32.2248 28.6033C32.8357 23.7922 35.8169 19.6548 40.2508 17.561H56.8707C58.0362 18.1113 59.1238 18.8182 60.105 19.669C60.3267 19.8613 60.6 19.9555 60.8721 19.9555C61.2002 19.9555 61.5264 19.8187 61.7581 19.5515C62.182 19.0626 62.1294 18.3224 61.6404 17.8983C61.1125 17.4405 60.5565 17.02 59.9787 16.6344C60.9921 15.8386 61.6451 14.6035 61.6451 13.218C61.6451 11.2292 60.301 9.54964 58.474 9.03682V4.89271C58.4735 2.19487 56.2788 0 53.5808 0H43.5399C40.8421 0 38.6472 2.19487 38.6472 4.89271V9.03714C36.82 9.54996 35.4759 11.2295 35.4759 13.2183C35.4759 14.6036 36.1286 15.8385 37.1417 16.6343C35.3725 17.8143 33.8376 19.3285 32.6287 21.1049C30.8685 23.6914 29.8808 26.7181 29.7726 29.8575C29.5527 36.202 29.4494 42.6153 29.4638 48.9629C27.8235 47.6193 25.9563 46.7795 23.9264 46.7795C21.077 46.7795 18.1937 48.524 15.8076 51.6917C15.4181 52.2086 15.5215 52.9434 16.0385 53.3328C16.5556 53.7223 17.2902 53.6189 17.6796 53.1019C18.799 51.6159 21.099 49.1232 23.9266 49.1232C26.1289 49.1232 28.4425 50.6656 30.4415 53.4659C32.0243 55.6835 33.2384 58.4577 33.8137 61.1073H14.0382C14.3376 59.7323 14.8137 58.3074 15.4412 56.9204C15.7079 56.3307 15.4462 55.6364 14.8565 55.3696C14.267 55.1028 13.5726 55.3646 13.3057 55.9543C12.5362 57.6554 11.9733 59.4166 11.6493 61.1071H10.0402C8.36377 61.1071 7 62.4709 7 64.1473C7 65.8236 8.36393 67.1875 10.0402 67.1875H10.6161C10.8107 68.9828 11.1386 70.7721 11.4594 72.5118C11.688 73.7515 11.9244 75.0335 12.1041 76.2829C12.3476 77.97 13.6963 79.2826 15.3848 79.4753C18.4573 79.8245 21.1904 79.9992 23.9247 79.9992C26.6549 79.9992 29.3862 79.8252 32.4563 79.4769C33.0167 79.4131 33.5381 79.225 33.9961 78.9436C35.192 79.6366 36.5395 79.9997 37.9425 79.9997H48.5614L48.5584 79.9989C51.2934 79.9991 54.028 79.8245 57.1021 79.4752C57.9162 79.3823 58.6498 79.0272 59.2203 78.497C62.1197 79.498 65.1356 79.99 68.1382 79.99C74.2451 79.99 80.2941 77.9614 85.1813 74.0749C86.9585 72.6629 87.507 70.1607 86.4851 68.1252ZM40.991 4.89271C40.991 3.48723 42.1344 2.34378 43.5399 2.34378H53.5808C54.9863 2.34378 56.1297 3.48723 56.1297 4.89271V8.8751H40.991V4.89271ZM39.8191 11.2189H57.3016C58.4042 11.2189 59.3009 12.1158 59.3009 13.2181C59.3009 14.3206 58.404 15.2175 57.3016 15.2175H39.8191C38.7166 15.2175 37.8197 14.3206 37.8197 13.2181C37.8197 12.1158 38.7167 11.2189 39.8191 11.2189ZM44.4665 31.1388C45.3731 31.1833 46.109 31.8702 46.2162 32.7719C46.5221 35.3449 46.5221 37.9542 46.2162 40.527C46.109 41.4288 45.3729 42.1158 44.4659 42.1603C40.2697 42.3669 36.0276 42.4272 31.8368 42.3436C31.877 38.5428 31.959 34.7362 32.0827 30.9505C36.199 30.8749 40.3589 30.9369 44.4665 31.1388ZM65.3394 42.5499C65.8897 41.4563 66.9493 40.8034 68.1741 40.8034C69.3991 40.8036 70.4594 41.4569 71.0096 42.5508L72.3796 45.2777C70.6377 46.1779 69.4787 47.9976 69.4787 50.0357C69.4787 52.9875 71.8793 55.3889 74.8303 55.3889C75.6567 55.3889 76.4608 55.2002 77.1866 54.8438L83.7432 67.8886C83.7362 67.8942 83.7298 67.9005 83.7227 67.9061C80.4264 70.5279 76.4848 72.2815 72.3242 72.9774C68.5735 73.6048 64.7039 73.3654 61.0681 72.2929C61.3759 70.6218 61.6842 68.9077 61.8703 67.1875H62.4469C64.1233 67.1875 65.487 65.8237 65.487 64.1473C65.487 62.4709 64.1233 61.1071 62.4469 61.1071H60.8381C60.482 59.2798 59.8171 57.2827 58.8937 55.3749L65.3394 42.5499ZM42.0443 53.4663C44.0434 50.6656 46.3573 49.1232 48.5595 49.1232C50.7623 49.1232 53.0763 50.6656 55.0752 53.4663C56.6579 55.6836 57.8718 58.4579 58.447 61.1074H38.672C39.2472 58.4582 40.4613 55.6839 42.0443 53.4663ZM9.34378 64.1476C9.34378 63.7636 9.65628 63.4512 10.0402 63.4512H62.4469C62.8309 63.4512 63.1433 63.7636 63.1433 64.1476C63.1433 64.5315 62.8309 64.844 62.4469 64.844H10.0402C9.65613 64.8439 9.34378 64.5315 9.34378 64.1476ZM35.5308 77.1062C35.6325 76.8447 35.7081 76.5698 35.7494 76.2828C35.8589 75.5145 35.9889 74.599 36.1248 73.6221C36.1342 73.5559 36.1392 73.5193 36.2431 73.5193C36.3472 73.5193 36.3522 73.5559 36.3614 73.6212C36.4975 74.5992 36.6275 75.5146 36.7372 76.2842C36.8058 76.7606 36.9655 77.2056 37.1941 77.6056C36.6141 77.5279 36.0548 77.36 35.5308 77.1062ZM56.8368 77.1468C50.8859 77.8231 46.2479 77.8236 40.2952 77.1484C39.6572 77.0757 39.148 76.5832 39.0572 75.952C38.948 75.1859 38.8185 74.2732 38.6825 73.297C38.5075 72.0479 37.5042 71.1755 36.243 71.1757C34.9817 71.1757 33.9786 72.048 33.8035 73.298C33.6678 74.2732 33.5382 75.186 33.4292 75.9507C33.3382 76.5832 32.829 77.0757 32.1915 77.1484C26.2377 77.8236 21.5997 77.8231 15.6499 77.1468C15.0195 77.075 14.5152 76.5821 14.4238 75.9489C14.2376 74.6542 13.997 73.349 13.7641 72.0869C13.4668 70.4747 13.1635 68.8192 12.9744 67.1877H59.5118C59.3224 68.8236 59.0184 70.4836 58.7204 72.1002C58.4885 73.3584 58.2487 74.6592 58.0624 75.9498C57.9712 76.5828 57.467 77.075 56.8368 77.1468ZM83.7227 72.2405C77.1608 77.4586 68.3082 79.0098 60.3595 76.4061C60.3667 76.3654 60.3764 76.3257 60.3823 76.2848C60.4621 75.7318 60.5539 75.1724 60.6501 74.6132C63.0986 75.3104 65.64 75.664 68.186 75.664C69.6991 75.664 71.2138 75.5395 72.7109 75.2892C77.0406 74.5649 81.1521 72.7918 84.649 70.1504C84.694 70.9393 84.3662 71.7293 83.7227 72.2405Z" fill="#3BB77E"/>
<path d="M69.2673 67.7169C70.057 68.8654 71.2467 69.6376 72.6171 69.8914C72.9378 69.9508 73.2592 69.9801 73.5782 69.9801C74.6235 69.9801 75.6437 69.6654 76.5237 69.0604C77.6723 68.2708 78.4445 67.0811 78.6982 65.7106C78.9521 64.3401 78.6568 62.9528 77.8673 61.8042C77.0776 60.6556 75.8879 59.8834 74.5174 59.6297C73.1465 59.3759 71.7596 59.6711 70.611 60.4606C69.4624 61.2503 68.6903 62.44 68.4365 63.8104C68.1824 65.1811 68.4776 66.5684 69.2673 67.7169ZM70.7409 64.2372C70.8807 63.4822 71.3062 62.8268 71.9388 62.3918C72.4235 62.0586 72.9854 61.8853 73.5612 61.8853C73.737 61.8853 73.9142 61.9015 74.0906 61.9342C74.8456 62.074 75.5009 62.4993 75.936 63.1322C76.371 63.7648 76.5335 64.529 76.3938 65.284C76.254 66.039 75.8285 66.6943 75.1959 67.1293C74.5631 67.5643 73.7987 67.7268 73.0442 67.5872C72.2892 67.4473 71.6338 67.022 71.1987 66.3892C70.7637 65.7564 70.601 64.9922 70.7409 64.2372Z" fill="#3BB77E"/>
<path d="M64.3464 60.6881C64.5801 60.7314 64.8145 60.7528 65.0472 60.7528C65.8092 60.7528 66.5529 60.5232 67.1945 60.0823C68.0318 59.5065 68.5948 58.6392 68.7798 57.6401C68.965 56.6409 68.7497 55.6295 68.174 54.792C67.5984 53.9545 66.7309 53.3915 65.7318 53.2065C63.6692 52.8248 61.6803 54.192 61.2984 56.2546C60.9162 58.3173 62.2837 60.3062 64.3464 60.6881ZM63.6028 56.6814C63.7494 55.8895 64.5131 55.3642 65.305 55.5112C65.6886 55.5823 66.0215 55.7984 66.2426 56.12C66.4637 56.4415 66.5462 56.8298 66.4753 57.2134C66.4042 57.597 66.1881 57.9301 65.8665 58.151C65.5451 58.3721 65.1572 58.4548 64.7731 58.3837C63.9812 58.2368 63.4562 57.4732 63.6028 56.6814Z" fill="#3BB77E"/>
</g>
</g>
</g>
<defs>
<clipPath id="clip0_5_5922">
<rect x="7" width="80" height="80" rx="10" fill="white"/>
</clipPath>
<clipPath id="clip1_5_5922">
<rect width="80" height="80" fill="white" transform="translate(7)"/>
</clipPath>
</defs>
</svg>
