<svg width="17" height="18" viewBox="0 0 17 18" fill="none" xmlns="http://www.w3.org/2000/svg">
<g clip-path="url(#clip0_5_3385)">
<mask id="mask0_5_3385" style="mask-type:luminance" maskUnits="userSpaceOnUse" x="0" y="1" width="17" height="17">
<path d="M16.125 1.13281H0.125V17.1328H16.125V1.13281Z" fill="white"/>
</mask>
<g mask="url(#mask0_5_3385)">
<path d="M8.12578 17.1382L7.65911 16.7382C7.01578 16.1996 1.39844 11.3482 1.39844 7.7996C1.39844 6.0154 2.10722 4.30428 3.36883 3.04266C4.63045 1.78104 6.34158 1.07227 8.12578 1.07227C9.90998 1.07227 11.6211 1.78104 12.8828 3.04266C14.1444 4.30428 14.8531 6.0154 14.8531 7.7996C14.8531 11.3482 9.23578 16.1996 8.59511 16.7409L8.12578 17.1382ZM8.12578 2.52694C6.72787 2.52852 5.38767 3.08455 4.39919 4.07302C3.41072 5.06149 2.8547 6.40169 2.85311 7.7996C2.85311 10.0289 6.30911 13.5902 8.12578 15.2202C9.94244 13.5896 13.3985 10.0263 13.3985 7.7996C13.3969 6.40169 12.8409 5.06149 11.8524 4.07302C10.8639 3.08455 9.52369 2.52852 8.12578 2.52694Z" fill="#3BB77E"/>
<path d="M8.1276 10.4661C7.60018 10.4661 7.08461 10.3097 6.64608 10.0167C6.20755 9.72372 5.86577 9.30724 5.66393 8.81997C5.4621 8.3327 5.40929 7.79653 5.51218 7.27924C5.61508 6.76196 5.86904 6.28681 6.24198 5.91387C6.61492 5.54093 7.09009 5.28695 7.60737 5.18406C8.12465 5.08116 8.66083 5.13397 9.1481 5.33581C9.63537 5.53764 10.0518 5.87943 10.3449 6.31796C10.6379 6.75649 10.7943 7.27207 10.7943 7.79948C10.7943 8.50673 10.5133 9.18501 10.0132 9.6851C9.51312 10.1852 8.83485 10.4661 8.1276 10.4661ZM8.1276 6.46615C7.86389 6.46615 7.60611 6.54435 7.38684 6.69086C7.16758 6.83737 6.99668 7.04561 6.89576 7.28924C6.79485 7.53287 6.76844 7.80096 6.81989 8.0596C6.87133 8.31825 6.99832 8.55582 7.18479 8.74229C7.37126 8.92876 7.60885 9.05575 7.86749 9.1072C8.12613 9.15865 8.39421 9.13224 8.63785 9.03132C8.88148 8.93041 9.08972 8.75951 9.23623 8.54024C9.38274 8.32098 9.46095 8.06319 9.46095 7.79948C9.46095 7.44586 9.32046 7.10672 9.07041 6.85668C8.82036 6.60663 8.48122 6.46615 8.1276 6.46615Z" fill="#3BB77E"/>
</g>
</g>
<defs>
<clipPath id="clip0_5_3385">
<rect width="16" height="17" fill="white" transform="translate(0.125 0.380859)"/>
</clipPath>
</defs>
</svg>
