<svg width="26" height="26" viewBox="0 0 26 26" fill="none" xmlns="http://www.w3.org/2000/svg">
<g clip-path="url(#clip0_5_2183)">
<g clip-path="url(#clip1_5_2183)">
<mask id="mask0_5_2183" style="mask-type:luminance" maskUnits="userSpaceOnUse" x="0" y="1" width="25" height="25">
<path d="M24.7344 1.03906H0.734375V25.0391H24.7344V1.03906Z" fill="white"/>
</mask>
<g mask="url(#mask0_5_2183)">
<path d="M24.7343 4.03907H4.97637L4.93437 3.68807C4.84842 2.95848 4.49776 2.2858 3.94886 1.79754C3.39997 1.30929 2.691 1.0394 1.95637 1.03906H0.734375V3.03907H1.95637C2.2013 3.0391 2.43771 3.12902 2.62074 3.29178C2.80378 3.45454 2.92071 3.67881 2.94937 3.92207L4.53437 17.39C4.62032 18.1196 4.97099 18.7923 5.51988 19.2805C6.06878 19.7688 6.77774 20.0387 7.51237 20.039H20.7343V18.039H7.51237C7.26728 18.039 7.03075 17.9489 6.8477 17.7859C6.66464 17.623 6.5478 17.3984 6.51937 17.155L6.38837 16.039H22.5703L24.7343 4.03907ZM20.8983 14.039H6.15337L5.21237 6.03907H22.3413L20.8983 14.039Z" fill="#253D4E"/>
<path d="M7.73438 25.0391C8.83895 25.0391 9.73437 24.1437 9.73437 23.0391C9.73437 21.9345 8.83895 21.0391 7.73438 21.0391C6.6298 21.0391 5.73438 21.9345 5.73438 23.0391C5.73438 24.1437 6.6298 25.0391 7.73438 25.0391Z" fill="#253D4E"/>
<path d="M17.7344 25.0391C18.839 25.0391 19.7344 24.1437 19.7344 23.0391C19.7344 21.9345 18.839 21.0391 17.7344 21.0391C16.6299 21.0391 15.7344 21.9345 15.7344 23.0391C15.7344 24.1437 16.6299 25.0391 17.7344 25.0391Z" fill="#253D4E"/>
</g>
</g>
</g>
<defs>
<clipPath id="clip0_5_2183">
<rect width="25" height="25" fill="white" transform="translate(0.238281 0.671875)"/>
</clipPath>
<clipPath id="clip1_5_2183">
<rect width="25" height="25" fill="white" transform="translate(0.238281 0.671875)"/>
</clipPath>
</defs>
</svg>
