<svg width="26" height="26" viewBox="0 0 26 26" fill="none" xmlns="http://www.w3.org/2000/svg">
<g clip-path="url(#clip0_5_2170)">
<g clip-path="url(#clip1_5_2170)">
<mask id="mask0_5_2170" style="mask-type:luminance" maskUnits="userSpaceOnUse" x="1" y="1" width="25" height="25">
<path d="M25.6641 1.03906H1.66406V25.0391H25.6641V1.03906Z" fill="white"/>
</mask>
<g mask="url(#mask0_5_2170)">
<path d="M19.1649 1.95703C18.0389 1.97454 16.9374 2.28888 15.9717 2.8683C15.006 3.44772 14.2103 4.2717 13.6649 5.25703C13.1196 4.2717 12.3239 3.44772 11.3582 2.8683C10.3925 2.28888 9.29105 1.97454 8.165 1.95703C6.36994 2.03502 4.6787 2.82028 3.46078 4.14126C2.24286 5.46224 1.59725 7.21155 1.665 9.00703C1.665 15.782 12.6209 23.607 13.0869 23.939L13.6649 24.348L14.2429 23.939C14.7089 23.609 25.6649 15.782 25.6649 9.00703C25.7327 7.21155 25.0871 5.46224 23.8692 4.14126C22.6512 2.82028 20.96 2.03502 19.1649 1.95703ZM13.6649 21.886C10.412 19.456 3.665 13.486 3.665 9.00703C3.59664 7.74174 4.03137 6.50076 4.87436 5.55473C5.71736 4.6087 6.90023 4.03438 8.165 3.95703C9.42977 4.03438 10.6126 4.6087 11.4556 5.55473C12.2986 6.50076 12.7333 7.74174 12.6649 9.00703H14.6649C14.5966 7.74174 15.0313 6.50076 15.8743 5.55473C16.7173 4.6087 17.9002 4.03438 19.1649 3.95703C20.4297 4.03438 21.6126 4.6087 22.4556 5.55473C23.2986 6.50076 23.7333 7.74174 23.6649 9.00703C23.6649 13.488 16.9179 19.456 13.6649 21.886Z" fill="#253D4E"/>
</g>
</g>
</g>
<defs>
<clipPath id="clip0_5_2170">
<rect width="25" height="25" fill="white" transform="translate(0.886719 0.671875)"/>
</clipPath>
<clipPath id="clip1_5_2170">
<rect width="25" height="25" fill="white" transform="translate(0.886719 0.671875)"/>
</clipPath>
</defs>
</svg>
