<svg width="17" height="17" viewBox="0 0 17 17" fill="none" xmlns="http://www.w3.org/2000/svg">
<g clip-path="url(#clip0_5_3414)">
<mask id="mask0_5_3414" style="mask-type:luminance" maskUnits="userSpaceOnUse" x="0" y="1" width="16" height="16">
<path d="M15.8674 1.19922H0.808594V16.258H15.8674V1.19922Z" fill="white"/>
</mask>
<g mask="url(#mask0_5_3414)">
<path d="M7.0831 16.258H0.808594V15.0031H7.0831V16.258ZM5.8282 12.4933H0.808594V13.7483H5.8282V12.4933ZM4.5733 9.98357H0.808594V11.2384H4.5733V9.98357ZM8.33801 1.19922C6.34175 1.20138 4.42786 1.99534 3.0163 3.40692C1.60472 4.81849 0.810753 6.73237 0.808594 8.72863H2.0635C2.0635 7.48765 2.43149 6.27454 3.12095 5.2427C3.8104 4.21086 4.79034 3.40665 5.93685 2.93174C7.08337 2.45684 8.34496 2.33258 9.56214 2.57468C10.7793 2.81679 11.8973 3.41437 12.7748 4.29188C13.6523 5.16938 14.2499 6.2874 14.4919 7.50454C14.7341 8.72167 14.6098 9.98329 14.1349 11.1298C13.66 12.2763 12.8558 13.2562 11.824 13.9457C10.7921 14.6351 9.57899 15.0031 8.33801 15.0031V16.258C10.3349 16.258 12.25 15.4648 13.6621 14.0527C15.0741 12.6407 15.8675 10.7256 15.8675 8.72863C15.8675 6.73171 15.0741 4.81658 13.6621 3.40453C12.25 1.99249 10.3349 1.19922 8.33801 1.19922ZM7.71056 5.59138V8.9884L9.77673 11.0546L10.664 10.1674L8.96545 8.46887V5.59138H7.71056Z" fill="#3BB77E"/>
</g>
</g>
<defs>
<clipPath id="clip0_5_3414">
<rect width="16" height="16" fill="white" transform="translate(0.125 0.380859)"/>
</clipPath>
</defs>
</svg>
