<svg width="17" height="18" viewBox="0 0 17 18" fill="none" xmlns="http://www.w3.org/2000/svg">
<g clip-path="url(#clip0_5_3405)">
<mask id="mask0_5_3405" style="mask-type:luminance" maskUnits="userSpaceOnUse" x="0" y="1" width="17" height="17">
<path d="M16.125 1.01562H0.125V17.0156H16.125V1.01562Z" fill="white"/>
</mask>
<g mask="url(#mask0_5_3405)">
<path d="M1.08811 5.4613C0.864887 5.52508 0.662181 5.64604 0.500056 5.81222C0.337931 5.9784 0.222005 6.18403 0.163751 6.40876C0.105496 6.6335 0.106931 6.86955 0.167914 7.09356C0.228898 7.31757 0.347315 7.52177 0.511449 7.68596L2.78612 9.95796V14.3487H7.18145L9.47145 16.6353C9.59427 16.7594 9.74046 16.858 9.90157 16.9252C10.0627 16.9925 10.2356 17.0272 10.4102 17.0273C10.5249 17.0271 10.6391 17.0123 10.7502 16.9833C10.9748 16.9268 11.1806 16.812 11.3468 16.6506C11.5129 16.4892 11.6337 16.2869 11.6968 16.064L16.1195 1.0293L1.08811 5.4613ZM1.45878 6.7433L12.8108 3.39663L4.12078 12.0727V9.40596L1.45878 6.7433ZM10.4188 15.6927L7.73412 13.0153H5.06745L13.7562 4.33396L10.4188 15.6927Z" fill="#3BB77E"/>
</g>
</g>
<defs>
<clipPath id="clip0_5_3405">
<rect width="16" height="17" fill="white" transform="translate(0.125 0.380859)"/>
</clipPath>
</defs>
</svg>
