<svg width="17" height="17" viewBox="0 0 17 17" fill="none" xmlns="http://www.w3.org/2000/svg">
<g clip-path="url(#clip0_5_3396)">
<mask id="mask0_5_3396" style="mask-type:luminance" maskUnits="userSpaceOnUse" x="0" y="0" width="16" height="16">
<path d="M15.4963 0.791016H0.4375V15.8498H15.4963V0.791016Z" fill="white"/>
</mask>
<g mask="url(#mask0_5_3396)">
<path d="M13.6124 8.58743V7.69393C13.6124 6.19625 13.0175 4.75989 11.9584 3.70086C10.8994 2.64184 9.46304 2.04688 7.96535 2.04688C6.46765 2.04688 5.03131 2.64184 3.97228 3.70086C2.91324 4.75989 2.31829 6.19625 2.31829 7.69393V8.58743C1.66019 8.87721 1.12161 9.38426 0.792719 10.0237C0.463822 10.6631 0.364571 11.3962 0.511581 12.1C0.65859 12.8039 1.04294 13.4359 1.60028 13.8903C2.15762 14.3446 2.85413 14.5937 3.57319 14.5959H4.8281V8.32139H3.57319V7.69393C3.57319 6.52907 4.03594 5.4119 4.85963 4.58821C5.68332 3.76452 6.80047 3.30178 7.96535 3.30178C9.13022 3.30178 10.2474 3.76452 11.0711 4.58821C11.8947 5.4119 12.3575 6.52907 12.3575 7.69393V8.32139H11.1026V13.341H8.5928V14.5959H12.3575C13.0766 14.5937 13.773 14.3446 14.3304 13.8903C14.8878 13.4359 15.2721 12.8039 15.4192 12.1C15.5662 11.3962 15.4669 10.6631 15.1379 10.0237C14.8091 9.38426 14.2705 8.87721 13.6124 8.58743ZM3.57319 13.341C3.07396 13.341 2.59517 13.1426 2.24217 12.7897C1.88916 12.4367 1.69083 11.9579 1.69083 11.4587C1.69083 10.9594 1.88916 10.4806 2.24217 10.1276C2.59517 9.77461 3.07396 9.57629 3.57319 9.57629V13.341ZM12.3575 13.341V9.57629C12.8567 9.57629 13.3355 9.77461 13.6885 10.1276C14.0416 10.4806 14.2399 10.9594 14.2399 11.4587C14.2399 11.9579 14.0416 12.4367 13.6885 12.7897C13.3355 13.1426 12.8567 13.341 12.3575 13.341Z" fill="#3BB77E"/>
</g>
</g>
<defs>
<clipPath id="clip0_5_3396">
<rect width="16" height="16" fill="white" transform="translate(0.125 0.380859)"/>
</clipPath>
</defs>
</svg>
