<svg width="26" height="26" viewBox="0 0 26 26" fill="none" xmlns="http://www.w3.org/2000/svg">
<g clip-path="url(#clip0_5_2198)">
<g clip-path="url(#clip1_5_2198)">
<mask id="mask0_5_2198" style="mask-type:luminance" maskUnits="userSpaceOnUse" x="1" y="1" width="25" height="25">
<path d="M25.1719 1.03906H1.17188V25.0391H25.1719V1.03906Z" fill="white"/>
</mask>
<g mask="url(#mask0_5_2198)">
<path d="M22.1718 25.0391H20.1718V19.9961C20.171 19.2121 19.8592 18.4605 19.3049 17.9061C18.7505 17.3517 17.9988 17.0399 17.2148 17.0391H9.12887C8.34486 17.0399 7.5932 17.3517 7.03883 17.9061C6.48446 18.4605 6.17267 19.2121 6.17188 19.9961V25.0391H4.17188V19.9961C4.17346 18.6819 4.69623 17.422 5.6255 16.4927C6.55477 15.5635 7.81467 15.0407 9.12887 15.0391H17.2148C18.529 15.0407 19.7889 15.5635 20.7182 16.4927C21.6475 17.422 22.1702 18.6819 22.1718 19.9961V25.0391Z" fill="#253D4E"/>
<path d="M13.1718 13.039C11.9852 13.039 10.8251 12.6871 9.83846 12.0278C8.85176 11.3685 8.08273 10.4315 7.6286 9.33517C7.17448 8.23881 7.05566 7.03241 7.28717 5.86853C7.51868 4.70464 8.09012 3.63554 8.92924 2.79643C9.76835 1.95731 10.8374 1.38586 12.0013 1.15435C13.1652 0.922842 14.3716 1.04166 15.4679 1.49579C16.5643 1.94992 17.5014 2.71895 18.1607 3.70565C18.8199 4.69234 19.1718 5.85238 19.1718 7.03907C19.1702 8.62988 18.5376 10.1551 17.4127 11.2799C16.2879 12.4048 14.7627 13.0374 13.1718 13.039ZM13.1718 3.03907C12.3807 3.03907 11.6074 3.27366 10.9496 3.71319C10.2918 4.15272 9.77911 4.77743 9.47636 5.50834C9.17361 6.23924 9.0944 7.04351 9.24874 7.81943C9.40308 8.59535 9.78403 9.30809 10.3434 9.8675C10.9028 10.4269 11.6156 10.8078 12.3915 10.9622C13.1674 11.1165 13.9717 11.0373 14.7026 10.7345C15.4335 10.4318 16.0582 9.91915 16.4977 9.26135C16.9372 8.60355 17.1718 7.83019 17.1718 7.03907C17.1718 5.9782 16.7504 4.96079 16.0003 4.21064C15.2501 3.4605 14.2327 3.03907 13.1718 3.03907Z" fill="#253D4E"/>
</g>
</g>
</g>
<defs>
<clipPath id="clip0_5_2198">
<rect width="25" height="25" fill="white" transform="translate(0.726562 0.671875)"/>
</clipPath>
<clipPath id="clip1_5_2198">
<rect width="25" height="25" fill="white" transform="translate(0.726562 0.671875)"/>
</clipPath>
</defs>
</svg>
