<svg width="181" height="56" viewBox="0 0 181 56" fill="none" xmlns="http://www.w3.org/2000/svg">
<g clip-path="url(#clip0_5_2117)">
<mask id="mask0_5_2117" style="mask-type:luminance" maskUnits="userSpaceOnUse" x="0" y="5" width="67" height="51">
<path d="M66.0299 5.32031H0.734375V55.5476H66.0299V5.32031Z" fill="white"/>
</mask>
<g mask="url(#mask0_5_2117)">
<path opacity="0.8" d="M49.6605 38.7554C55.8774 39.3993 61.6654 32.6976 62.5883 23.7867C63.5112 14.8758 59.2196 7.1301 53.0028 6.4862C46.7859 5.8423 40.9979 12.544 40.075 21.4549C39.1521 30.3658 43.4437 38.1115 49.6605 38.7554Z" fill="#FDC040"/>
<path d="M40.3444 43.0276C46.2593 41.0081 48.7077 32.4982 45.8132 24.0202C42.9186 15.5421 35.7771 10.3064 29.8622 12.3259C23.9473 14.3453 21.4989 22.8552 24.3934 31.3333C27.288 39.8113 34.4295 45.047 40.3444 43.0276Z" fill="#FDC040"/>
<path d="M23.3383 32.9453H63.5795C63.9007 33.0849 64.6394 33.615 65.0247 34.6196C65.5064 35.8752 66.8686 54.2919 43.8478 50.5249C25.7345 50.5249 21.5079 49.9667 21.6684 49.6877C25.0125 48.8506 25.4311 45.5021 25.8497 42.9908C26.2682 40.4794 23.3383 32.9453 23.3383 32.9453Z" fill="#81B13D"/>
<path d="M53.5698 15.7285C53.0414 15.7285 52.6133 16.1568 52.6133 16.685V16.8378C52.6133 17.3662 53.0414 17.7943 53.5698 17.7943C54.0982 17.7943 54.5263 17.3662 54.5263 16.8378V16.685C54.5263 16.1566 54.0982 15.7285 53.5698 15.7285Z" fill="#253D4E"/>
<path d="M56.0542 19.9941C55.5258 19.9941 55.0977 20.4222 55.0977 20.9506V21.1033C55.0977 21.6316 55.5258 22.0598 56.0542 22.0598C56.5825 22.0598 57.0106 21.6317 57.0106 21.1033V20.9506C57.0106 20.4222 56.5825 19.9941 56.0542 19.9941Z" fill="#253D4E"/>
<path d="M35.1136 19.097L35.0428 18.9615C34.7984 18.493 34.2203 18.3115 33.7524 18.5561C33.284 18.8006 33.1026 19.3783 33.3471 19.8466L33.4179 19.9822C33.5883 20.3091 33.9216 20.4964 34.2665 20.4964C34.4156 20.4964 34.5669 20.4614 34.7083 20.3875C35.1766 20.143 35.3581 19.5653 35.1136 19.097Z" fill="#253D4E"/>
<path d="M39.2894 21.7298L39.2186 21.5943C38.9742 21.1258 38.3962 20.9443 37.9282 21.1889C37.4598 21.4335 37.2784 22.0112 37.5228 22.4794L37.5937 22.6151C37.7641 22.942 38.0973 23.1292 38.4422 23.1292C38.5914 23.1292 38.7427 23.0943 38.8841 23.0203C39.3524 22.7759 39.5338 22.1981 39.2894 21.7298Z" fill="#253D4E"/>
<path d="M33.3372 40.7581L30.4922 37.913C30.1186 37.5395 29.5129 37.5394 29.1397 37.9129C28.766 38.2864 28.766 38.8921 29.1395 39.2655L31.9845 42.1106C32.1713 42.2974 32.4159 42.3908 32.6608 42.3908C32.9055 42.3908 33.1503 42.2974 33.3371 42.1107C33.7107 41.7371 33.7107 41.1316 33.3372 40.7581Z" fill="#253D4E"/>
<path d="M41.7896 38.9762C41.4834 38.5459 40.8863 38.4451 40.4557 38.7516L30.5268 45.8205C30.0965 46.1268 29.996 46.724 30.3024 47.1543C30.4889 47.4165 30.7832 47.5561 31.0823 47.5561C31.2741 47.5561 31.468 47.4985 31.6362 47.3788L41.5651 40.3099C41.9954 40.0036 42.0959 39.4064 41.7896 38.9762Z" fill="#253D4E"/>
<path d="M45.3008 40.4195C44.9948 39.9892 44.3976 39.8885 43.9669 40.195L40.1557 42.9084C39.7253 43.2149 39.625 43.8121 39.9313 44.2423C40.1179 44.5045 40.4122 44.6442 40.7112 44.6442C40.9031 44.6442 41.0968 44.5866 41.2651 44.4667L45.0764 41.7533C45.5067 41.447 45.6071 40.8498 45.3008 40.4195Z" fill="#253D4E"/>
<path d="M65.8492 36.0795C65.5401 35.6509 64.9424 35.5542 64.5138 35.863L64.1952 36.0927C64.1966 36.0106 64.1984 35.9288 64.1984 35.8466C64.1984 34.9341 63.8434 34.0756 63.1968 33.4272C62.5504 32.7824 61.6917 32.4273 60.7793 32.4273H60.4962C61.5459 30.3992 62.0789 27.957 62.0789 25.1376C62.0789 19.6085 60.0063 13.5648 56.7988 9.74086C56.4591 9.33603 55.8559 9.28304 55.4512 9.62274C55.0466 9.96228 54.9937 10.5656 55.3331 10.9703C58.269 14.4702 60.1661 20.0313 60.1661 25.1376C60.1661 28.0804 59.5335 30.5298 58.2859 32.4273H56.3922L57.2336 31.8283C57.664 31.522 57.7644 30.9247 57.4581 30.4944C57.1519 30.0642 56.5549 29.9634 56.1242 30.27L53.0941 32.4273H47.4047C47.978 29.523 47.3808 26.2784 45.6481 22.9593C44.4077 20.5842 42.6461 18.2859 40.6198 16.3388C42.7069 11.0597 46.161 7.6825 49.5265 7.6825C50.543 7.6825 51.5673 7.97823 52.5708 8.56182C53.0275 8.82706 53.613 8.67211 53.8785 8.21557C54.1439 7.75888 53.989 7.17339 53.5323 6.90787C52.2328 6.15251 50.8851 5.76953 49.5265 5.76953C45.4548 5.76953 41.5396 9.26822 39.1052 14.9905C38.276 14.3083 37.4167 13.6879 36.5413 13.1474C32.4209 10.6026 28.5192 10.0534 25.5553 11.6008C22.8214 13.0295 21.0703 16.1975 20.6242 20.5211C20.5699 21.0466 20.952 21.5166 21.4773 21.5706C22.0041 21.6257 22.4729 21.2427 22.5268 20.7174C22.905 17.0534 24.295 14.4178 26.4407 13.2963C31.6649 10.5689 40.2927 16.8371 43.9523 23.8448C45.58 26.9626 46.0808 29.8458 45.4471 32.4274H34.7231C34.7204 32.4274 34.7179 32.4274 34.7153 32.4274H29.814L28.2087 30.8222C27.835 30.4488 27.2295 30.4488 26.856 30.8222C26.4825 31.1959 26.4825 31.8014 26.856 32.175L27.1084 32.4273H24.4825C23.4171 30.0059 22.7167 27.2253 22.4996 24.5279C22.4572 24.0015 21.9965 23.6078 21.4695 23.6513C20.9429 23.6937 20.5505 24.1547 20.5928 24.6814C20.7692 26.8734 21.2217 29.0545 21.92 31.113C19.1939 28.79 15.6332 27.5416 11.967 27.7407C11.6253 27.7593 11.3194 27.9591 11.1653 28.2646C9.72685 31.1127 9.32243 34.3275 9.91897 37.372C9.92457 37.4643 9.94282 37.553 9.97271 37.6362C10.1601 38.5048 10.4305 39.3579 10.7815 40.1834C6.68749 40.8183 3.05197 43.2314 0.872851 46.8259C0.695455 47.1185 0.688058 47.4836 0.853211 47.7834C2.39442 50.5805 4.82376 52.7295 7.67778 53.9539C7.75391 53.9985 7.83336 54.0324 7.91511 54.054C9.49128 54.6966 11.1909 55.0598 12.9387 55.0958C13.0345 55.0978 13.1292 55.0988 13.2248 55.0988C13.9051 55.0988 14.5791 55.0474 15.2431 54.9508C15.3057 54.9471 15.3678 54.939 15.4281 54.9234C18.2394 54.4761 20.853 53.1852 22.9164 51.2455C22.9632 51.2525 23.0107 51.2574 23.0594 51.2574H27.3513C27.8797 51.2574 28.3078 50.8293 28.3078 50.3009C28.3078 49.7726 27.8797 49.3444 27.3513 49.3444H24.6051C24.8561 49.0042 25.0939 48.6521 25.3153 48.2868C25.3221 48.2756 25.3275 48.2638 25.3338 48.2525C25.3395 48.2422 25.3464 48.2328 25.3518 48.2221C27.5796 43.8084 27.3275 38.5149 24.7098 34.3403H29.0213L31.6254 36.9444C31.8122 37.131 32.0571 37.2244 32.3018 37.2244C32.5465 37.2244 32.7914 37.131 32.9782 36.9444C33.3517 36.5707 33.3517 35.9652 32.9782 35.5916L31.7269 34.3403H34.3231L37.874 37.8912C38.0609 38.078 38.3057 38.1713 38.5504 38.1713C38.7952 38.1713 39.0401 38.078 39.2269 37.8912C39.6004 37.5176 39.6004 36.9121 39.2269 36.5385L37.0287 34.3404H46.1656L46.1687 34.3407L46.1719 34.3404H50.4074L48.3192 35.8271C47.8888 36.1334 47.7884 36.7306 48.0947 37.1608C48.2813 37.4231 48.5756 37.5628 48.8747 37.5628C49.0665 37.5628 49.2602 37.5051 49.4286 37.3852L53.7054 34.3403H58.7842L58.7859 34.3404L58.7881 34.3403H60.78C61.1823 34.3403 61.5612 34.497 61.8448 34.7797C62.1294 35.065 62.2861 35.4439 62.2861 35.8464C62.2861 36.4223 62.2497 36.9896 62.1794 37.5467L55.1562 42.6107C54.7279 42.9197 54.6309 43.5174 54.9398 43.946C55.1269 44.2053 55.4196 44.3432 55.7165 44.3432C55.9103 44.3432 56.106 44.2844 56.2752 44.1624L61.4956 40.3984C60.4526 43.3007 58.4422 45.7453 55.8549 47.3417L45.1882 36.675C44.8145 36.3015 44.209 36.3015 43.8354 36.675C43.4619 37.0487 43.4619 37.6542 43.8354 38.0277L54.0735 48.2658C52.6872 48.858 51.1822 49.2242 49.6051 49.3188L45.4352 45.1491C45.0618 44.7756 44.4562 44.7755 44.0826 45.1492C43.7091 45.5227 43.7091 46.1283 44.0827 46.5018L46.9252 49.3441H37.5615L36.0269 47.8096C35.6532 47.4362 35.0477 47.4362 34.6741 47.8096C34.3006 48.1832 34.3006 48.7888 34.6741 49.1623L34.856 49.3441H31.3363C30.8079 49.3441 30.3798 49.7723 30.3798 50.3006C30.3798 50.829 30.8079 51.2571 31.3363 51.2571H36.7681L38.9254 53.4145C39.1122 53.6012 39.3571 53.6945 39.6019 53.6945C39.8466 53.6945 40.0914 53.6012 40.2783 53.4145C40.6518 53.0408 40.6518 52.4353 40.2783 52.0617L39.4736 51.2571H48.7863C51.1977 51.2571 53.4812 50.6999 55.5156 49.7085L56.3191 50.512C56.5059 50.6987 56.7508 50.792 56.9955 50.792C57.2403 50.792 57.4851 50.6987 57.672 50.512C58.0455 50.1383 58.0455 49.5328 57.672 49.1592L57.2388 48.7262C60.6873 46.4558 63.1744 42.8399 63.9458 38.6311L65.6329 37.4147C66.0612 37.1058 66.1581 36.5081 65.8492 36.0795ZM22.9682 35.1647C23.0755 35.3289 23.177 35.4958 23.2757 35.6641L20.8545 40.4682L18.09 36.2381L20.0248 32.0478C21.1674 32.8944 22.1697 33.943 22.9682 35.1647ZM19.8071 42.3622L14.5341 42.6278C14.1787 42.2177 13.848 41.7823 13.547 41.3217C12.918 40.3592 12.4381 39.3242 12.1075 38.2506L17.0672 38.1697L19.8071 42.3622ZM18.3899 31.0251L16.8553 34.3485L13.8052 29.6814C15.4181 29.8247 16.9753 30.2876 18.3899 31.0251ZM12.2033 30.7268L15.8302 36.2766L11.6829 36.3443C11.4204 34.4718 11.591 32.5449 12.2033 30.7268ZM11.7089 41.9926C11.7858 42.1185 11.8645 42.2438 11.9456 42.3681C12.3706 43.0184 12.8458 43.6255 13.3631 44.1881C13.4009 44.2372 13.4433 44.2823 13.4896 44.3233C14.3488 45.2332 15.3206 46.0201 16.3755 46.6677L11.3432 46.5642L8.97055 42.596C9.84915 42.2926 10.767 42.0884 11.7089 41.9926ZM7.20259 43.3667L9.08647 46.5177L3.50981 46.4031C4.53745 45.1479 5.79478 44.1193 7.20259 43.3667ZM7.81639 51.9142C6.12215 51.0744 4.62736 49.8465 3.47193 48.3155L10.1001 48.4519L7.81639 51.9142ZM14.6128 53.1049C14.0737 53.1673 13.5276 53.1942 12.9776 53.1833C11.8281 53.1595 10.7027 52.9718 9.62999 52.6391L12.3611 48.4982L17.3683 48.6012L14.6128 53.1049ZM17.2209 52.5075L19.583 48.6468L22.4865 48.7065C22.5462 48.712 22.6061 48.716 22.666 48.7207C21.2266 50.468 19.3336 51.7731 17.2209 52.5075ZM22.5983 46.7956C20.379 46.5781 18.2691 45.7552 16.4971 44.4443L21.0188 44.2165L22.7057 46.7978L22.5983 46.7956ZM24.3124 45.7597L22.0639 42.319L24.2957 37.8905C25.1594 40.4257 25.1737 43.2005 24.3124 45.7597Z" fill="#253D4E"/>
<path d="M56.4622 37.7193C56.1531 37.2908 55.5553 37.1942 55.1269 37.503L51.7564 39.9334C51.328 40.2423 51.2312 40.84 51.5401 41.2686C51.7271 41.5279 52.0198 41.6657 52.3166 41.6657C52.5106 41.6657 52.7062 41.607 52.8753 41.4849L56.2459 39.0546C56.6743 38.7457 56.7712 38.1479 56.4622 37.7193Z" fill="#253D4E"/>
</g>
<path d="M80.289 51.3613L80.2799 47.1275L78.1812 50.6313H77.652L75.5533 47.1822V51.3613H74.4219V44.9741H75.3982L77.9349 49.2079L80.4259 44.9741H81.4022L81.4113 51.3613H80.289ZM88.192 49.8831H84.9984L84.3685 51.3613H83.1458L86.0197 44.9741H87.1883L90.0714 51.3613H88.8307L88.192 49.8831ZM87.7994 48.9524L86.5948 46.1603L85.3994 48.9524H87.7994ZM95.9756 51.3613L94.6705 49.4907C94.6152 49.4969 94.5332 49.4999 94.4244 49.4999H92.982V51.3613H91.7958V44.9741H94.4244C94.9777 44.9741 95.4582 45.0653 95.8659 45.2478C96.2794 45.4303 96.5959 45.6919 96.8144 46.0325C97.0337 46.3731 97.1434 46.7777 97.1434 47.2461C97.1434 47.7267 97.0245 48.1403 96.7876 48.487C96.5557 48.8338 96.2217 49.0923 95.7839 49.2626L97.253 51.3613H95.9756ZM95.9479 47.2461C95.9479 46.8385 95.814 46.5252 95.5461 46.3063C95.2783 46.0873 94.8865 45.9778 94.3691 45.9778H92.982V48.5235H94.3691C94.8865 48.5235 95.2783 48.414 95.5461 48.195C95.814 47.9699 95.9479 47.6537 95.9479 47.2461ZM100.589 45.9778H98.4727V44.9741H103.892V45.9778H101.775V51.3613H100.589V45.9778ZM113.92 51.4617L113.116 50.6861C112.52 51.1971 111.806 51.4525 110.973 51.4525C110.528 51.4525 110.13 51.3795 109.777 51.2335C109.424 51.0876 109.148 50.8868 108.947 50.6313C108.746 50.3697 108.645 50.0747 108.645 49.7462C108.645 49.3509 108.761 49.0041 108.993 48.706C109.224 48.4019 109.601 48.1038 110.124 47.8118C109.868 47.5563 109.686 47.3191 109.576 47.1001C109.467 46.875 109.412 46.6439 109.412 46.4066C109.412 45.9565 109.58 45.5945 109.914 45.3208C110.254 45.0409 110.705 44.9011 111.265 44.9011C111.781 44.9011 112.195 45.0288 112.505 45.2843C112.816 45.5337 112.971 45.8744 112.971 46.3063C112.971 46.6347 112.867 46.9267 112.66 47.1822C112.46 47.4377 112.129 47.6962 111.666 47.9578L113.044 49.2718C113.196 48.9737 113.315 48.6148 113.399 48.195L114.321 48.4962C114.2 49.0619 114.008 49.5485 113.746 49.9561L114.55 50.7226L113.92 51.4617ZM111.265 45.7132C111.015 45.7132 110.818 45.777 110.671 45.9048C110.526 46.0264 110.453 46.1876 110.453 46.3884C110.453 46.5344 110.492 46.6743 110.571 46.8081C110.65 46.9359 110.802 47.1122 111.027 47.3373C111.392 47.1366 111.645 46.9632 111.785 46.8172C111.93 46.6651 112.004 46.5009 112.004 46.3245C112.004 46.1359 111.937 45.9869 111.803 45.8774C111.675 45.7679 111.496 45.7132 111.265 45.7132ZM111.055 50.5218C111.584 50.5218 112.046 50.3606 112.442 50.0382L110.753 48.4232C110.388 48.6239 110.13 48.8185 109.978 49.0071C109.832 49.1896 109.759 49.3965 109.759 49.6276C109.759 49.8952 109.878 50.1112 110.115 50.2755C110.352 50.4397 110.665 50.5218 111.055 50.5218ZM124.28 48.0947H125.402V50.6404C125.074 50.902 124.691 51.1028 124.253 51.2427C123.815 51.3826 123.365 51.4525 122.902 51.4525C122.251 51.4525 121.664 51.3127 121.141 51.0328C120.618 50.7469 120.208 50.3546 119.91 49.8557C119.611 49.3569 119.462 48.7943 119.462 48.1677C119.462 47.5411 119.611 46.9785 119.91 46.4796C120.208 45.9808 120.618 45.5915 121.141 45.3117C121.67 45.0258 122.264 44.8828 122.921 44.8828C123.456 44.8828 123.942 44.971 124.381 45.1474C124.819 45.3238 125.186 45.5824 125.484 45.923L124.737 46.653C124.249 46.1664 123.663 45.923 122.975 45.923C122.525 45.923 122.124 46.0173 121.771 46.2059C121.424 46.3945 121.15 46.6591 120.949 46.9997C120.755 47.3403 120.657 47.7297 120.657 48.1677C120.657 48.5935 120.755 48.9768 120.949 49.3174C121.15 49.658 121.424 49.9257 121.771 50.1203C122.124 50.315 122.522 50.4123 122.966 50.4123C123.465 50.4123 123.903 50.3028 124.28 50.0838V48.0947ZM132.058 51.3613L130.754 49.4907C130.699 49.4969 130.616 49.4999 130.507 49.4999H129.065V51.3613H127.879V44.9741H130.507C131.061 44.9741 131.542 45.0653 131.949 45.2478C132.363 45.4303 132.679 45.6919 132.898 46.0325C133.117 46.3731 133.227 46.7777 133.227 47.2461C133.227 47.7267 133.108 48.1403 132.871 48.487C132.639 48.8338 132.305 49.0923 131.867 49.2626L133.335 51.3613H132.058ZM132.031 47.2461C132.031 46.8385 131.897 46.5252 131.629 46.3063C131.362 46.0873 130.97 45.9778 130.452 45.9778H129.065V48.5235H130.452C130.97 48.5235 131.362 48.414 131.629 48.195C131.897 47.9699 132.031 47.6537 132.031 47.2461ZM138.449 51.4525C137.799 51.4525 137.212 51.3127 136.689 51.0328C136.166 50.7469 135.755 50.3546 135.457 49.8557C135.159 49.3509 135.01 48.7882 135.01 48.1677C135.01 47.5472 135.159 46.9876 135.457 46.4887C135.755 45.9839 136.166 45.5915 136.689 45.3117C137.212 45.0258 137.799 44.8828 138.449 44.8828C139.101 44.8828 139.688 45.0258 140.211 45.3117C140.734 45.5915 141.144 45.9808 141.443 46.4796C141.741 46.9785 141.89 47.5411 141.89 48.1677C141.89 48.7943 141.741 49.3569 141.443 49.8557C141.144 50.3546 140.734 50.7469 140.211 51.0328C139.688 51.3127 139.101 51.4525 138.449 51.4525ZM138.449 50.4123C138.876 50.4123 139.259 50.3181 139.6 50.1295C139.94 49.9348 140.207 49.6671 140.402 49.3265C140.597 48.9798 140.695 48.5935 140.695 48.1677C140.695 47.7418 140.597 47.3586 140.402 47.018C140.207 46.6712 139.94 46.4036 139.6 46.215C139.259 46.0204 138.876 45.923 138.449 45.923C138.024 45.923 137.641 46.0204 137.3 46.215C136.959 46.4036 136.691 46.6712 136.497 47.018C136.302 47.3586 136.205 47.7418 136.205 48.1677C136.205 48.5935 136.302 48.9798 136.497 49.3265C136.691 49.6671 136.959 49.9348 137.3 50.1295C137.641 50.3181 138.024 50.4123 138.449 50.4123ZM147.016 51.4525C146.371 51.4525 145.787 51.3127 145.264 51.0328C144.747 50.7469 144.339 50.3546 144.041 49.8557C143.749 49.3569 143.604 48.7943 143.604 48.1677C143.604 47.5411 143.753 46.9785 144.051 46.4796C144.349 45.9808 144.756 45.5915 145.273 45.3117C145.796 45.0258 146.38 44.8828 147.025 44.8828C147.548 44.8828 148.025 44.9741 148.457 45.1566C148.889 45.339 149.254 45.6037 149.552 45.9504L148.786 46.6712C148.324 46.1724 147.755 45.923 147.08 45.923C146.642 45.923 146.25 46.0204 145.902 46.215C145.556 46.4036 145.285 46.6682 145.09 47.0088C144.896 47.3495 144.799 47.7358 144.799 48.1677C144.799 48.5995 144.896 48.9859 145.09 49.3265C145.285 49.6671 145.556 49.9348 145.902 50.1295C146.25 50.3181 146.642 50.4123 147.08 50.4123C147.755 50.4123 148.324 50.1599 148.786 49.655L149.552 50.385C149.254 50.7317 148.887 50.9963 148.449 51.1788C148.017 51.3613 147.539 51.4525 147.016 51.4525ZM156.392 50.3667V51.3613H151.601V44.9741H156.264V45.9686H152.788V47.6293H155.872V48.6057H152.788V50.3667H156.392ZM162.805 51.3613L161.501 49.4907C161.446 49.4969 161.364 49.4999 161.254 49.4999H159.813V51.3613H158.627V44.9741H161.254C161.808 44.9741 162.289 45.0653 162.697 45.2478C163.11 45.4303 163.427 45.6919 163.645 46.0325C163.864 46.3731 163.974 46.7777 163.974 47.2461C163.974 47.7267 163.855 48.1403 163.618 48.487C163.386 48.8338 163.052 49.0923 162.615 49.2626L164.083 51.3613H162.805ZM162.779 47.2461C162.779 46.8385 162.645 46.5252 162.377 46.3063C162.109 46.0873 161.717 45.9778 161.2 45.9778H159.813V48.5235H161.2C161.717 48.5235 162.109 48.414 162.377 48.195C162.645 47.9699 162.779 47.6537 162.779 47.2461ZM168.88 49.1075V51.3613H167.693V49.1258L165.185 44.9741H166.453L168.323 48.0856L170.212 44.9741H171.38L168.88 49.1075Z" fill="#253D4E"/>
<path d="M99.2055 6.2832C99.9489 6.2832 100.553 6.53099 101.018 7.02657C101.483 7.52214 101.714 8.14161 101.714 8.88498V35.9713C101.714 36.7766 101.436 37.458 100.878 38.0155C100.352 38.5421 99.686 38.8054 98.8807 38.8054C98.4781 38.8054 98.0595 38.7434 97.6259 38.6195C97.2232 38.4647 96.9135 38.2633 96.6967 38.0155L78.4378 14.8319L79.6458 14.0885V36.2036C79.6458 36.9469 79.398 37.5664 78.9024 38.062C78.4378 38.5576 77.8183 38.8054 77.044 38.8054C76.3006 38.8054 75.6967 38.5576 75.2321 38.062C74.7675 37.5664 74.5352 36.9469 74.5352 36.2036V9.11728C74.5352 8.31197 74.7984 7.64604 75.325 7.11949C75.8825 6.56196 76.5639 6.2832 77.3692 6.2832C77.8029 6.2832 78.252 6.37612 78.7166 6.56196C79.1812 6.71683 79.5219 6.96462 79.7387 7.30533L97.4401 29.885L96.6498 30.4425V8.88498C96.6498 8.14161 96.8825 7.52214 97.3471 7.02657C97.8117 6.53099 98.4312 6.2832 99.2055 6.2832ZM119.692 39.27C117.06 39.27 114.768 38.7279 112.816 37.6439C110.896 36.5288 109.409 35.0266 108.356 33.1372C107.334 31.2478 106.823 29.1107 106.823 26.7257C106.823 23.9381 107.38 21.5686 108.495 19.6173C109.641 17.635 111.128 16.1173 112.955 15.0642C114.783 14.0111 116.719 13.4845 118.763 13.4845C120.343 13.4845 121.83 13.8098 123.223 14.4602C124.648 15.1106 125.902 16.0089 126.986 17.1549C128.07 18.2699 128.922 19.5708 129.542 21.0576C130.192 22.5443 130.517 24.1239 130.517 25.7965C130.486 26.5399 130.192 27.1438 129.635 27.6084C129.077 28.073 128.427 28.3054 127.684 28.3054H109.936L108.542 23.6593H125.592L124.57 24.5885V23.3341C124.508 22.4359 124.184 21.6306 123.595 20.9182C123.038 20.2058 122.325 19.6483 121.458 19.2456C120.622 18.812 119.723 18.5952 118.763 18.5952C117.834 18.5952 116.967 18.7191 116.161 18.9668C115.356 19.2146 114.659 19.6328 114.07 20.2213C113.482 20.8098 113.017 21.5996 112.676 22.5907C112.336 23.5819 112.166 24.8363 112.166 26.354C112.166 28.0266 112.507 29.4514 113.188 30.6284C113.9 31.7744 114.799 32.6571 115.883 33.2766C116.998 33.8651 118.175 34.1593 119.414 34.1593C120.56 34.1593 121.473 34.0664 122.154 33.8806C122.836 33.6947 123.378 33.4779 123.781 33.2301C124.215 32.9514 124.601 32.7191 124.942 32.5332C125.5 32.2545 126.026 32.1151 126.522 32.1151C127.203 32.1151 127.761 32.3474 128.194 32.812C128.659 33.2766 128.892 33.8186 128.892 34.4381C128.892 35.2744 128.458 36.0332 127.591 36.7146C126.785 37.3961 125.654 38 124.199 38.5266C122.743 39.0222 121.241 39.27 119.692 39.27ZM133.708 34.9492C133.399 34.5155 133.259 33.958 133.29 33.2766C133.321 32.5952 133.723 32.0067 134.498 31.5111C134.993 31.2014 135.52 31.0775 136.077 31.1394C136.635 31.1704 137.177 31.4492 137.704 31.9757C138.602 32.8739 139.546 33.5708 140.538 34.0664C141.529 34.562 142.768 34.8098 144.254 34.8098C144.719 34.7788 145.23 34.7169 145.788 34.6239C146.346 34.5 146.825 34.2523 147.228 33.8806C147.661 33.4779 147.878 32.8739 147.878 32.0686C147.878 31.3872 147.646 30.8452 147.182 30.4425C146.717 30.0399 146.098 29.6992 145.323 29.4204C144.58 29.1416 143.744 28.8784 142.815 28.6306C141.854 28.3518 140.863 28.0421 139.841 27.7014C138.85 27.3607 137.936 26.927 137.099 26.4005C136.263 25.843 135.582 25.1151 135.055 24.2169C134.529 23.3186 134.266 22.1881 134.266 20.8253C134.266 19.2766 134.699 17.9602 135.567 16.8761C136.434 15.7921 137.549 14.9558 138.912 14.3673C140.306 13.7788 141.761 13.4845 143.279 13.4845C144.239 13.4845 145.246 13.6084 146.299 13.8562C147.352 14.073 148.359 14.4447 149.319 14.9713C150.279 15.4668 151.084 16.1328 151.735 16.9691C152.076 17.4337 152.277 17.9912 152.338 18.6416C152.4 19.2921 152.107 19.8806 151.456 20.4071C150.992 20.7788 150.449 20.9491 149.83 20.9182C149.21 20.8562 148.699 20.6394 148.297 20.2677C147.77 19.5863 147.058 19.0443 146.16 18.6416C145.292 18.239 144.285 18.0376 143.139 18.0376C142.675 18.0376 142.164 18.0996 141.607 18.2235C141.08 18.3164 140.615 18.5487 140.213 18.9204C139.81 19.2611 139.608 19.8186 139.608 20.593C139.608 21.3053 139.841 21.8784 140.306 22.312C140.77 22.7146 141.39 23.0553 142.164 23.3341C142.969 23.5819 143.821 23.8297 144.719 24.0775C145.648 24.3253 146.593 24.6195 147.553 24.9602C148.514 25.3009 149.396 25.75 150.201 26.3076C151.007 26.8651 151.657 27.593 152.153 28.4912C152.648 29.3584 152.896 30.4735 152.896 31.8363C152.896 33.416 152.431 34.7633 151.502 35.8784C150.573 36.9934 149.412 37.8452 148.018 38.4337C146.624 38.9912 145.199 39.27 143.744 39.27C141.916 39.27 140.089 38.9602 138.261 38.3408C136.434 37.6903 134.916 36.5598 133.708 34.9492ZM157.822 14.4137H168.833C169.576 14.4137 170.196 14.6615 170.692 15.1571C171.187 15.6527 171.435 16.2722 171.435 17.0155C171.435 17.7279 171.187 18.3319 170.692 18.8275C170.196 19.2921 169.576 19.5244 168.833 19.5244H157.822C157.079 19.5244 156.46 19.2766 155.964 18.781C155.468 18.2854 155.221 17.666 155.221 16.9226C155.221 16.2102 155.468 15.6217 155.964 15.1571C156.46 14.6615 157.079 14.4137 157.822 14.4137ZM162.793 8.60621C163.599 8.60621 164.249 8.88498 164.745 9.4425C165.271 9.96905 165.535 10.635 165.535 11.4403V32.1151C165.535 32.5487 165.612 32.9049 165.767 33.1837C165.953 33.4624 166.185 33.6638 166.464 33.7877C166.774 33.9115 167.099 33.9735 167.439 33.9735C167.811 33.9735 168.152 33.9115 168.461 33.7877C168.771 33.6328 169.128 33.5554 169.53 33.5554C169.964 33.5554 170.351 33.7567 170.692 34.1593C171.063 34.562 171.249 35.1195 171.249 35.8319C171.249 36.6992 170.769 37.4116 169.809 37.9691C168.88 38.5266 167.873 38.8054 166.789 38.8054C166.138 38.8054 165.411 38.7589 164.606 38.666C163.831 38.5421 163.088 38.2788 162.376 37.8762C161.694 37.4425 161.121 36.7921 160.656 35.9248C160.191 35.0576 159.96 33.8651 159.96 32.3474V11.4403C159.96 10.635 160.222 9.96905 160.749 9.4425C161.307 8.88498 161.988 8.60621 162.793 8.60621Z" fill="#3BB77E"/>
</g>
<defs>
<clipPath id="clip0_5_2117">
<rect width="179.981" height="55.25" fill="white" transform="translate(0.734375 0.296875)"/>
</clipPath>
</defs>
</svg>
